<?xml version="1.0" encoding="UTF-8" standalone="no"?>
<!-- Created with Inkscape (http://www.inkscape.org/) -->

<svg
   width="199.96828mm"
   height="207.50757mm"
   viewBox="0 0 199.96828 207.50757"
   version="1.1"
   id="svg1"
   xml:space="preserve"
   inkscape:version="1.4.3 (0d15f75, 2025-12-25)"
   sodipodi:docname="logo.svg"
   xmlns:inkscape="http://www.inkscape.org/namespaces/inkscape"
   xmlns:sodipodi="http://sodipodi.sourceforge.net/DTD/sodipodi-0.dtd"
   xmlns="http://www.w3.org/2000/svg"
   xmlns:svg="http://www.w3.org/2000/svg"><sodipodi:namedview
     id="namedview1"
     pagecolor="#ffffff"
     bordercolor="#000000"
     borderopacity="0.25"
     inkscape:showpageshadow="2"
     inkscape:pageopacity="0.0"
     inkscape:pagecheckerboard="0"
     inkscape:deskcolor="#d1d1d1"
     inkscape:document-units="mm"
     inkscape:zoom="0.72960859"
     inkscape:cx="323.46111"
     inkscape:cy="341.96418"
     inkscape:window-width="1920"
     inkscape:window-height="968"
     inkscape:window-x="1920"
     inkscape:window-y="30"
     inkscape:window-maximized="1"
     inkscape:current-layer="layer1" /><defs
     id="defs1" /><g
     inkscape:label="Layer 1"
     inkscape:groupmode="layer"
     id="layer1"
     transform="translate(-6.367313,-22.399746)"><g
       id="g2"
       transform="matrix(0.94258288,0,0,0.94258288,6.3902329,7.0883267)"><ellipse
         style="fill:#b900ed;stroke-width:0.273836"
         id="path2"
         cx="130.30774"
         cy="64.516678"
         rx="12.017244"
         ry="6.7884374"
         transform="matrix(0.98170546,0.19040588,-0.29064709,0.95683032,0,0)" /><path
         style="fill:#000000"
         d="m 102.35486,172.2355 c -6.709311,-0.57982 -13.846431,-2.49834 -20.762051,-5.58101 l -2.90268,-1.29388 -3.18274,0.29511 c -3.86563,0.35844 -11.66425,0.13636 -15.353575,-0.43723 -9.710645,-1.50974 -18.94043,-4.9052 -23.786429,-8.75058 l -1.56143,-1.23901 0.163041,-4.26416 c 0.187756,-4.91053 0.498049,-7.43 1.372392,-11.14332 1.35769,-5.76609 3.374221,-10.51153 6.562769,-15.44395 l 1.602777,-2.47936 -0.331063,-1.48939 c -1.514127,-6.81181 -2.018999,-16.02283 -1.244123,-22.698193 1.352405,-11.65063 6.126742,-23.04012 13.500744,-32.20692 6.782597,-8.431605 15.493307,-14.862879 26.045327,-19.229731 l 3.00943,-1.245421 1.525,-2.932657 c 4.31288,-8.293904 9.53008,-13.895665 17.269911,-18.542902 2.7092,-1.626687 2.46801,-1.653944 6.2225,0.703198 6.55764,4.117017 12.43219,10.737357 16.35766,18.434329 l 1.28473,2.519075 1.98672,0.701405 c 5.20889,1.838989 12.27167,5.886769 17.36349,9.95127 2.98238,2.38066 7.46943,6.802194 9.73659,9.594424 2.02077,2.48878 4.65225,6.18112 4.65225,6.52777 0,0.10945 -0.37424,0.0917 -0.83165,-0.0395 -0.45741,-0.13118 -1.69446,-0.3167 -2.74901,-0.41226 l -1.91735,-0.17374 -2.13925,-2.69695 c -2.31842,-2.92283 -6.47873,-7.091992 -9.42836,-9.448426 C 138.00339,53.767369 129.38532,49.614128 121.10013,47.782116 115.44699,46.5321 105.776,45.725668 102.22257,46.207978 l -1.58751,0.215472 -1.288431,2.592121 c -0.70864,1.425667 -1.22266,2.6579 -1.14226,2.738295 0.0804,0.0804 1.34947,0.01527 2.820161,-0.144725 15.49294,-1.685451 30.87451,3.202164 42.61411,13.540966 1.3586,1.19648 3.24914,3.06839 4.20122,4.1598 l 1.73104,1.98438 -2.60761,0.34353 -2.60762,0.34354 -1.48739,-1.56565 c -1.71755,-1.80793 -4.1355,-3.87006 -6.77905,-5.78146 -1.74456,-1.26139 -3.04271,-2.06111 -3.04271,-1.87446 0,0.0457 0.23626,1.74652 0.52503,3.77962 0.76033,5.35323 0.79029,5.19996 -0.73714,3.77123 -0.69875,-0.6536 -1.75312,-1.50778 -2.34306,-1.89818 l -1.07261,-0.70982 -0.57815,-3.30856 c -0.31798,-1.81971 -0.68397,-3.586903 -0.81332,-3.927102 -0.17772,-0.467442 -0.77295,-0.812297 -2.4366,-1.411685 -1.21079,-0.436228 -2.57356,-0.873443 -3.02838,-0.971588 l -0.82694,-0.178447 0.72457,3.056493 c 0.39852,1.681069 0.71111,3.054489 0.69465,3.052039 -0.0165,-0.002 -1.04195,-0.41193 -2.27888,-0.90996 l -2.24896,-0.9055 -0.56894,-2.198899 c -0.31291,-1.209392 -0.63286,-2.503808 -0.71098,-2.876479 -0.12965,-0.618431 -0.32251,-0.707148 -2.20919,-1.016237 -3.54133,-0.580166 -10.38324,-0.672157 -13.8411,-0.186096 -1.673491,0.235237 -3.488261,0.551433 -4.032831,0.702657 -1.03426,0.287208 -1.03263,0.284263 -1.45509,2.622202 l -0.2133,1.180359 -2.05892,0.318343 c -1.1324,0.175089 -2.23594,0.386272 -2.45229,0.469296 -0.47076,0.180644 -0.38121,-0.495352 0.57976,-4.376697 2.27018,-9.169296 6.85333,-16.750633 13.329071,-22.048635 1.83135,-1.49828 1.87082,-1.515241 2.52652,-1.085607 1.41538,0.927391 4.49866,4.082052 6.14674,6.289041 1.65011,2.2097 1.77686,2.316076 2.94556,2.471989 0.67168,0.08961 2.17374,0.317707 3.33791,0.506887 1.16416,0.189179 2.14577,0.319854 2.18135,0.290388 0.14322,-0.118609 -2.02318,-3.47384 -3.63801,-5.634403 -2.41312,-3.228632 -5.89613,-6.595703 -8.9827,-8.68367 l -2.63293,-1.7811 -1.46648,0.888779 c -2.64189,1.601154 -4.73201,3.32516 -7.566831,6.24141 -6.0687,6.243012 -10.15557,14.467075 -12.18291,24.515862 -0.4458,2.209657 -0.83091,4.03466 -0.85581,4.05555 -0.10467,0.0879 -4.69232,1.94872 -4.80425,1.94872 -0.0674,0 -0.0468,-0.37876 0.0458,-0.84169 l 0.16834,-0.8417 -1.03485,0.62718 c -0.56917,0.34494 -1.33251,0.80827 -1.69631,1.02962 -5.82045,3.5413 -12.05477,10.64444 -15.477987,17.63499 -0.669863,1.36793 -1.641471,3.1151 -2.159127,3.8826 -1.442997,2.13946 -3.193157,5.78112 -3.810135,7.92798 -0.356388,1.2401 -0.591514,2.94994 -0.65524,4.76492 l -0.09939,2.830763 -1.532911,2.02929 -1.532911,2.02929 -0.08342,-1.68506 c -0.182928,-3.69523 1.036407,-10.673503 2.784538,-15.935963 1.127344,-3.39368 4.167618,-9.66873 6.170907,-12.73659 4.596146,-7.0386 11.075556,-13.06154 17.827536,-16.571602 l 2.35789,-1.225769 0.97376,-3.338294 c 0.53557,-1.836061 0.93344,-3.338294 0.88415,-3.338294 -0.0493,0 -1.25087,0.511188 -2.67019,1.135972 -9.49177,4.178262 -18.813474,12.280587 -24.261319,21.087687 -6.838532,11.0553 -10.05401,23.70147 -9.174432,36.082163 0.279632,3.93602 0.657478,6.96699 0.898575,7.20808 0.04016,0.0402 0.546038,-0.0298 1.124175,-0.15538 0.578138,-0.12563 1.986775,-0.31272 3.130306,-0.41577 l 2.079147,-0.18737 -2.499999,3.27492 c -3.429041,4.49192 -4.864394,6.68802 -6.896022,10.55095 -2.166124,4.11866 -3.150255,6.65803 -4.152836,10.71562 -0.950213,3.84566 -1.325061,6.77502 -1.325061,10.35509 v 2.69605 l 1.846945,1.06484 c 14.59921,8.41707 35.923971,9.13986 54.377011,1.84309 3.32805,-1.316 8.897501,-4.1037 11.287601,-5.64985 1.00418,-0.6496 1.85281,-1.18109 1.88584,-1.18109 0.033,0 0.87107,0.77588 1.8623,1.72419 2.62195,2.50841 7.09064,5.42372 8.3032,5.41689 0.48348,-0.003 5.59235,-1.72064 5.83319,-1.96147 0.073,-0.073 -0.2101,-0.27593 -0.62908,-0.45096 -6.87055,-2.87021 -10.23732,-5.41672 -13.18413,-9.97202 -2.35245,-3.63652 -3.62428,-7.52281 -4.67126,-14.27386 l -0.58537,-3.77451 -0.49902,1.39326 c -2.02965,5.66683 -2.0192,11.74921 0.0271,15.76027 0.62958,1.23408 0.74247,1.08219 -2.35432,3.16765 -5.102701,3.43629 -11.053871,5.94124 -18.289391,7.69832 -6.07951,1.47635 -8.49135,1.74806 -15.44498,1.73995 -8.407886,-0.01 -11.82077,-0.58141 -20.698034,-3.46663 l -4.558449,-1.48155 -0.17517,-0.93374 c -0.570869,-3.04299 0.615291,-10.38525 2.32956,-14.41984 1.332302,-3.13562 4.013414,-7.92332 6.254688,-11.16907 6.267662,-9.07668 11.423445,-16.92862 11.423445,-17.39721 0,-0.54691 -0.0185,-0.54429 -0.727605,0.10286 -1.465722,1.33765 -5.733609,4.26064 -6.787434,4.64858 -0.596156,0.21945 -1.766557,0.61294 -2.600892,0.87441 -1.50548,0.4718 -1.514834,0.47141 -1.234773,-0.0519 1.245369,-2.327 9.374802,-14.514183 13.203844,-19.794463 2.63583,-3.63483 2.66433,-3.68456 1.78008,-3.10632 -1.48684,0.9723 -7.392688,4.19755 -7.496379,4.09386 -0.05969,-0.0597 0.325436,-0.93138 0.855828,-1.9371 3.637561,-6.89744 9.769741,-12.55361 17.568771,-16.20497 2.64027,-1.23613 6.79026,-2.71577 8.67466,-3.09288 0.48335,-0.0967 0.83192,-0.22276 0.77461,-0.28008 -0.0573,-0.0573 -1.27741,-0.22586 -2.71131,-0.37455 -2.92477,-0.30328 -8.31732,0.0214 -10.64992,0.64127 -0.76399,0.20302 -1.38907,0.32951 -1.38907,0.2811 0,-0.0484 0.82887,-0.63906 1.84192,-1.31253 4.04537,-2.68936 12.02896,-5.85675 17.6427,-6.99953 15.405131,-3.136012 30.546651,0.54178 39.059501,9.48733 l 2.17982,2.29061 1.17736,-0.34087 c 0.70581,-0.20435 2.50689,-0.33205 4.49689,-0.31884 1.98914,0.0132 4.32688,-0.15247 5.83306,-0.41339 3.49694,-0.60581 9.63701,-0.81219 12.56771,-0.42243 4.894,0.65086 8.75701,2.49735 11.93401,5.70436 3.12799,3.15754 4.26735,6.07056 4.52165,11.5605 l 0.15547,3.35658 -1.57632,-1.53293 c -1.24708,-1.21275 -1.95948,-1.66515 -3.41078,-2.16596 -1.67552,-0.57818 -2.23558,-0.6311 -6.46465,-0.61084 -4.22229,0.0202 -4.84,0.0849 -7.01146,0.73372 -3.05593,0.91312 -5.65845,2.18662 -7.81269,3.82298 -1.91166,1.45211 -5.55647,5.175823 -6.67686,6.821423 l -0.73122,1.07399 1.33209,2.22952 c 1.61992,2.71125 5.24282,10.02617 6.45537,13.0339 1.00747,2.49904 2.09904,6.18006 2.51841,8.49265 0.59305,3.27038 0.24633,9.56411 -0.61773,11.21323 -0.32214,0.61482 -0.32367,0.61416 -1.07218,-0.46595 -1.19311,-1.72166 -2.41487,-2.66844 -6.49884,-5.03616 -3.35846,-1.94711 -5.67653,-3.12404 -12.29635,-6.24312 -0.87312,-0.4114 -1.6768,-0.79339 -1.78594,-0.84887 -0.32474,-0.16509 -0.22646,1.67626 0.20587,3.85697 0.56955,2.87285 2.35669,6.40582 4.32937,8.55865 1.56588,1.70888 4.67929,3.98939 5.54167,4.05917 0.24215,0.0196 1.01249,0.25579 1.71187,0.52488 l 1.27159,0.48925 1.32488,-1.29837 c 0.72868,-0.71411 1.74908,-1.85157 2.26756,-2.52769 l 0.94269,-1.22931 1.42178,1.59342 c 0.78198,0.87638 1.42178,1.68149 1.42178,1.78912 0,0.33445 -3.4704,4.07276 -5.61525,6.04874 -3.99383,3.67937 -8.50918,6.64976 -14.52475,9.55498 -10.38414,5.01503 -21.73295,6.48174 -31.470481,4.0672 -1.71915,-0.42628 -1.75752,-0.42367 -3.83645,0.26093 -1.15497,0.38033 -3.21539,0.97708 -4.57871,1.3261 -1.36332,0.34902 -2.36321,0.706 -2.22198,0.79328 0.14123,0.0873 1.19622,0.52045 2.34443,0.96259 10.381,3.99736 23.233361,4.14343 34.635491,0.39363 6.1449,-2.02087 15.50234,-7.17768 20.90058,-11.51816 5.10596,-4.10546 11.53582,-11.32549 13.779,-15.4723 l 0.73951,-1.36709 -1.75886,-2.63362 c -0.96737,-1.44849 -2.00127,-2.853 -2.29756,-3.12114 -0.31962,-0.28925 -0.53948,-0.82058 -0.54059,-1.30642 -0.002,-0.93075 -0.66192,-5.24368 -0.95504,-6.24285 -0.1326,-0.45202 0.26722,-0.11693 1.2628,1.05834 3.69228,4.35869 8.46144,11.27473 9.77972,14.18214 1.79722,3.96369 3.06186,9.0891 2.83421,11.48665 -0.0802,0.8442 -0.23236,0.99325 -1.80732,1.76985 -3.50297,1.72728 -8.60952,3.01463 -14.14977,3.56713 -3.0941,0.30856 -3.19489,0.33907 -4.23333,1.2815 -0.58507,0.53098 -1.9943,1.69888 -3.13162,2.59532 l -2.06786,1.62991 h 3.82952 c 8.70339,0 16.5588,-1.83303 23.58952,-5.50452 l 2.91042,-1.51984 -0.0283,-3.16855 c -0.0325,-3.6392 -0.56694,-7.00689 -1.74158,-10.97376 -1.41628,-4.78288 -3.68073,-9.10682 -7.41498,-14.15879 -2.1916,-2.96496 -8.8814,-9.97185 -12.25555,-12.83646 -1.98656,-1.68657 -2.36282,-2.16254 -3.71904,-4.70464 -0.82988,-1.55553 -1.69976,-3.12128 -1.93306,-3.47946 -0.35677,-0.54772 -0.36111,-0.61424 -0.0273,-0.41856 1.61997,0.94971 6.16428,4.19634 8.46666,6.04892 2.12753,1.71188 2.82831,2.14851 2.99242,1.86443 0.63262,-1.09508 0.47162,-11.41461 -0.24941,-15.986483 l -0.14838,-0.94084 1.3687,-0.31593 c 2.40226,-0.55451 2.56877,-0.49612 2.89271,1.01438 0.90983,4.242383 1.00694,13.802253 0.18537,18.248853 l -0.36663,1.98437 0.8298,0.65409 c 0.45639,0.35974 1.49545,1.28252 2.30903,2.05061 l 1.47923,1.39653 0.30701,-1.38915 c 1.26798,-5.73732 1.68275,-14.03557 0.99514,-19.909993 -0.23846,-2.03729 -0.50834,-3.98533 -0.59972,-4.32898 -0.15665,-0.58905 -0.11475,-0.61447 0.73231,-0.44418 0.49415,0.0993 1.55331,0.49957 2.35367,0.88939 1.36869,0.66663 1.46682,0.77955 1.65054,1.89939 0.40611,2.47542 0.5419,11.226783 0.22377,14.420873 -0.48079,4.82713 -1.62496,10.76803 -2.5232,13.10125 -0.0917,0.23828 0.45408,1.3171 1.33862,2.64583 2.09099,3.14103 3.62025,6.38528 4.97925,10.56325 1.4855,4.56688 2.26225,9.10361 2.44872,14.30213 l 0.14711,4.10104 -1.34574,1.01414 c -3.9789,2.99846 -12.63698,6.26071 -20.22586,7.62083 -3.84265,0.6887 -13.30948,0.97174 -17.19907,0.51422 l -2.69934,-0.31752 -3.04271,1.44191 c -5.5679,2.63856 -11.83138,4.54242 -17.51408,5.32362 -3.55539,0.48876 -9.74426,0.68657 -12.913,0.41272 z m 9.10588,-13.97552 1.03609,-0.18406 -1.87382,-1.51397 -1.87381,-1.51398 -2.99874,1.51485 -2.99873,1.51485 1.05834,0.16089 c 1.49431,0.22717 6.41495,0.24095 7.65067,0.0214 z m -38.408491,-6.56984 c 1.46352,-0.24191 1.27922,-0.87133 -0.52979,-1.80929 -3.08289,-1.59846 -10.792377,-9.78843 -15.259945,-16.21099 -0.835106,-1.20055 -1.613272,-2.18282 -1.729258,-2.18282 -0.291127,0 -2.920066,3.43678 -2.920066,3.81737 0,0.3607 2.003681,3.65789 3.384487,5.5694 2.680997,3.71141 7.959162,9.26577 9.976972,10.49904 0.63095,0.38563 1.33639,0.48474 3.43958,0.48321 1.45521,-0.001 3.09232,-0.0757 3.63802,-0.16592 z m 84.419521,-1.55236 c 0.99185,-0.22777 2.76019,-0.71639 3.92964,-1.08582 l 2.12626,-0.67169 -0.18413,-1.23672 c -0.10127,-0.68019 -0.50039,-2.21217 -0.88693,-3.4044 l -0.7028,-2.16769 -1.91018,2.69685 c -1.0506,1.48327 -2.62817,3.49003 -3.50573,4.45946 -1.68848,1.86527 -1.87951,2.19702 -1.13253,1.96683 0.25467,-0.0785 1.27454,-0.32904 2.2664,-0.55682 z m -100.402172,-0.9432 c -2.07883,-2.42848 -4.152359,-5.24186 -5.554527,-7.53643 -0.932933,-1.52669 -1.444426,-2.14426 -1.578105,-1.90539 -0.354042,0.63264 -1.292526,5.78048 -1.292526,7.08986 v 1.27555 l 1.521354,0.4527 c 2.598677,0.77325 7.05367,1.91691 7.565262,1.94209 0.378616,0.0186 0.230712,-0.27615 -0.661458,-1.31838 z m 16.974841,-0.24511 c 0,-0.14585 0.68582,-0.26458 1.52829,-0.26458 1.49701,0 5.91125,-0.47218 6.09057,-0.6515 0.0499,-0.0499 -0.46626,-0.84653 -1.14713,-1.77018 -2.41087,-3.2705 -4.20751,-7.65407 -4.89451,-11.94198 l -0.33014,-2.06054 -0.51005,1.1345 c -1.03701,2.3066 -1.60966,5.45654 -1.63705,9.00479 -0.0143,1.85481 -0.0473,3.37285 -0.0734,3.37343 -0.18679,0.004 -2.62157,-4.22947 -3.39462,-5.90263 -1.40912,-3.04986 -1.9907,-5.62137 -2.16729,-9.58287 -0.16472,-3.69535 0.10845,-6.0448 0.99669,-8.57198 0.28134,-0.80047 0.51153,-1.49799 0.51153,-1.55003 0,-0.052 -0.92273,0.63457 -2.05052,1.52581 -1.12779,0.89123 -3.38997,2.63323 -5.027082,3.8711 -1.63711,1.23787 -2.976563,2.31544 -2.976563,2.3946 0,0.0792 0.506016,0.96117 1.124479,1.96004 l 1.12448,1.81611 1.322916,-1.3026 1.32292,-1.3026 0.0721,1.64233 c 0.0933,2.12477 0.74931,6.04243 1.29409,7.72774 1.39622,4.31931 4.64397,8.69271 7.62965,10.27404 0.93834,0.49698 1.19063,0.53448 1.19063,0.177 z m 61.685231,-0.98041 c 0.70708,-0.53922 1.28191,-1.04524 1.27739,-1.12448 -0.005,-0.0792 -1.2667,-0.9775 -2.80484,-1.99615 -5.21601,-3.45434 -9.35825,-8.51702 -10.5287,-12.86828 l -0.38176,-1.41922 -0.0174,1.90521 c -0.0227,2.48535 0.3688,4.26724 1.46145,6.65149 1.19399,2.60538 2.83174,4.84353 5.13221,7.01368 2.09365,1.97504 3.30981,2.81566 4.07573,2.81717 0.27518,5.5e-4 1.07885,-0.44019 1.78593,-0.97942 z m -13.91212,-2.25034 c -1.56005,-2.0898 -3.70133,-6.38083 -4.3952,-8.80779 -0.29123,-1.01864 -0.60396,-2.78054 -0.69495,-3.91532 -0.091,-1.13478 -0.24628,-1.96822 -0.3451,-1.85209 -0.53257,0.62594 -1.1943,3.84423 -1.18588,5.76741 0.0108,2.45401 0.71397,4.29403 2.5512,6.67541 1.00429,1.30175 4.87394,4.23462 5.18145,3.92711 0.0719,-0.0719 -0.42831,-0.87951 -1.11152,-1.79473 z m -27.484671,-0.1131 c 1.64812,-0.92168 1.71451,-0.99762 1.56154,-1.78594 -0.36492,-1.8806 -0.47798,-9.62375 -0.17428,-11.93583 0.67788,-5.16083 2.17821,-10.91692 3.74907,-14.38351 0.956811,-2.11149 0.602801,-1.83617 -2.32358,1.80709 -4.30035,5.35382 -6.43475,11.49723 -6.43091,18.51002 0.002,3.89931 0.89834,8.75077 1.61651,8.75077 0.1542,0 1.05494,-0.43317 2.00165,-0.9626 z m 51.842681,-15.24313 c -0.9487,-1.05502 -5.08593,-5.19244 -9.19386,-9.19427 -8.00366,-7.79694 -10.10842,-10.06943 -13.65027,-14.73813 l -2.26099,-2.98031 0.85667,-1.41348 c 2.29014,-3.778723 5.6196,-6.516993 11.58123,-9.524843 9.5357,-4.81108 15.53265,-6.397 24.14443,-6.38511 5.15285,0.007 7.72116,0.4208 10.79642,1.73901 0.6516,0.27931 1.23615,0.45641 1.29899,0.39357 0.32189,-0.32189 -1.51884,-3.38121 -2.81726,-4.68232 -1.618,-1.62136 -4.80626,-3.35732 -7.55836,-4.11542 -2.49273,-0.68665 -9.3673,-0.79531 -13.12484,-0.20745 -1.65811,0.25941 -4.50302,0.47965 -6.32203,0.48943 -2.61057,0.014 -3.47451,0.11308 -4.10104,0.4702 l -0.79375,0.45242 1.49348,0.0106 c 1.56536,0.0111 4.42781,0.77586 6.11329,1.63328 0.5457,0.27761 0.99218,0.54198 0.99218,0.5875 0,0.0455 -1.51804,0.0751 -3.37343,0.0658 -2.5429,-0.0128 -3.76428,0.10154 -4.96094,0.4645 -1.90331,0.57729 -4.41783,1.87391 -5.07846,2.61872 -0.46904,0.52881 -0.46651,0.53275 0.13831,0.21515 1.91065,-1.00329 5.99041,-1.47332 8.24744,-0.95018 0.90691,0.2102 0.88231,0.22652 -1.19062,0.7895 -4.21679,1.14522 -8.50658,3.34307 -12.51164,6.41026 -3.62269,2.77436 -6.04728,6.44076 -6.65948,10.070253 -0.28898,1.71329 -0.27019,1.98692 0.21116,3.0751 0.6614,1.49519 3.11394,4.83609 5.05111,6.88071 0.81039,0.85533 3.22301,3.20682 5.36138,5.22552 2.13837,2.01869 3.84779,3.67036 3.79871,3.67036 -0.0491,0 -1.56053,-0.76672 -3.35878,-1.70383 -4.72881,-2.46427 -7.30302,-3.43629 -11.20705,-4.23175 -0.43656,-0.0889 0.69454,0.62903 2.51355,1.5955 1.81901,0.96648 5.15276,2.7975 7.40833,4.06893 2.25557,1.27143 6.24417,3.45534 8.86354,4.85312 2.61937,1.39778 6.13172,3.37163 7.80521,4.38631 1.67349,1.01469 3.08086,1.85271 3.12749,1.86226 0.0466,0.01 -0.69142,-0.84583 -1.64012,-1.90086 z m -61.301721,-3.93765 c 2.41664,-9.63555 10.81185,-18.97631 20.526021,-22.83787 1.01738,-0.40443 1.90932,-0.79766 1.98208,-0.87386 0.0728,-0.0762 -1.11786,-0.0679 -2.64583,0.0185 -6.424701,0.36319 -11.789841,2.89427 -16.352681,7.71459 -1.17418,1.24044 -2.19331,2.25535 -2.26472,2.25535 -0.18079,0 1.00362,-4.35871 1.63828,-6.02899 1.12959,-2.97285 3.46424,-5.97564 5.81866,-7.483893 l 1.14268,-0.732 -1.50786,-0.18839 c -0.82933,-0.10362 -2.32945,-0.11204 -3.3336,-0.0187 -2.03225,0.18887 -3.39701,-0.25997 -3.39701,-1.11721 0,-0.95347 0.79789,-3.12198 1.69981,-4.61976 0.85476,-1.41944 0.88053,-1.52212 0.34012,-1.35511 -3.14534,0.97207 -7.58945,4.67424 -9.84658,8.20269 -1.94185,3.035613 -3.86655,7.603513 -4.50658,10.695533 l -0.19169,0.92605 1.05304,-1.32292 c 1.39948,-1.75814 3.28298,-3.48334 5.2858,-4.84155 0.90152,-0.61137 1.70345,-1.11158 1.78207,-1.11158 0.0786,0 -0.0876,0.58492 -0.36939,1.29981 -1.34043,3.40071 -1.95791,11.38567 -1.23964,16.0304 0.49902,3.22697 1.46045,6.60298 2.61439,9.18029 l 0.8651,1.93221 0.20052,-1.85208 c 0.11029,-1.01865 0.42844,-2.76083 0.70701,-3.87151 z m 61.798341,-2.25194 c -1.91159,-5.72707 -5.95133,-11.12912 -10.78951,-14.42798 l -1.52947,-1.04286 1.19701,1.86746 c 0.65836,1.0271 1.143,1.86745 1.077,1.86745 -0.066,0 -1.7417,-0.95535 -3.72376,-2.12301 -6.63622,-3.90949 -6.67792,-3.90828 -2.55855,0.074 4.27311,4.13089 6.76417,6.4882 11.95964,11.31748 2.10874,1.9601 4.05708,3.83799 4.32965,4.17307 0.27256,0.33509 0.54872,0.5561 0.61369,0.49114 0.065,-0.065 -0.19411,-1.0535 -0.5757,-2.19675 z m -33.20983,-26.598443 1.45021,-0.64848 -1.71479,0.10651 c -3.20259,0.19893 -7.61212,-1.32579 -10.54977,-3.64788 -0.74331,-0.58754 -1.35148,-0.98663 -1.35148,-0.88684 0,0.0998 0.37079,0.75924 0.82398,1.46547 1.09897,1.7126 2.89703,3.256 4.56203,3.91591 1.85409,0.73485 4.74567,0.6049 6.77982,-0.30469 z m -36.410111,-8.19209 c 4.50143,-3.01248 9.10284,-4.8829 14.19011,-5.76811 l 2.77813,-0.48341 -1.77438,-0.84459 c -3.33179,-1.58591 -6.90216,-1.39437 -10.87116,0.58319 -1.79439,0.89405 -2.65319,1.56756 -4.94925,3.88141 -1.91506,1.9299 -3.16856,3.46839 -4.0349,4.95221 -0.69122,1.18391 -1.25677,2.23625 -1.25677,2.33854 0,0.1023 0.80367,-0.55088 1.78594,-1.4515 0.98227,-0.90062 2.84179,-2.34411 4.13228,-3.20774 z m 38.193191,3.11607 c 1.5165,-0.76847 3.74301,-3.10283 3.9509,-4.14227 0.0835,-0.41741 0.48171,-0.90814 0.97632,-1.20309 l 0.83533,-0.49814 -1.98437,-0.272 -1.98438,-0.272 -0.1905,1.02651 c -0.38485,2.0738 -1.86527,3.33713 -3.91054,3.33713 -1.42742,0 -2.696,-0.70235 -3.45673,-1.91383 -0.80433,-1.28091 -0.6014,-3.37432 0.43163,-4.45256 0.93249,-0.97332 0.87176,-1.02828 -2.21425,-2.00396 -2.61848,-0.82786 -4.5635,-0.76571 -6.4774,0.20696 l -1.229301,0.62475 h 1.908961 c 1.04993,0 2.11343,0.0841 2.36334,0.18681 0.41432,0.17035 0.42015,0.26872 0.0661,1.11599 -1.79126,4.28708 2.88986,9.4152 8.24054,9.02742 0.74575,-0.0541 1.94573,-0.39853 2.6743,-0.76772 z m 12.98129,-11.59747 c -0.55041,-3.02833 -2.53611,-5.61527 -6.1621,-8.02793 -3.61866,-2.40777 -8.00145,-3.9152 -13.49206,-4.6405 -2.68372,-0.35451 -8.04087,-0.19643 -10.715621,0.31621 l -1.71979,0.32961 1.05833,0.18952 c 0.58208,0.10423 2.24896,0.33084 3.704171,0.50359 2.75046,0.32649 5.51409,0.87433 6.87916,1.36366 1.12691,0.40395 6.49293,2.95025 6.40423,3.03894 -0.0406,0.0406 -1.02189,-0.0951 -2.18067,-0.30158 -2.77662,-0.49471 -6.76267,-0.49122 -9.16719,0.008 -1.96684,0.40836 -5.628011,2.02628 -6.830331,3.01841 l -0.66145,0.54583 1.56609,-0.52899 c 0.86136,-0.29094 2.60893,-0.66783 3.883501,-0.83753 3.72341,-0.49573 5.83167,0.0356 11.9771,3.01828 4.08561,1.98298 5.26336,2.44223 6.4908,2.53101 1.59473,0.11536 3.46688,-0.4443 3.46688,-1.03638 0,-0.17756 -0.3582,-0.95754 -0.79601,-1.73329 -0.43781,-0.77575 -0.7057,-1.41044 -0.59531,-1.41042 0.43225,8e-5 4.24082,2.62187 5.49236,3.7809 0.72761,0.67383 1.39596,1.22986 1.48524,1.23564 0.0893,0.006 0.05,-0.60757 -0.0873,-1.363 z m -18.72811,-39.05735 c 0,-0.117807 -0.57883,-0.860445 -1.28628,-1.650308 -1.46394,-1.634478 -1.37666,-1.6501 -3.24443,0.580746 l -1.07482,1.283757 h 2.80276 c 1.54152,0 2.80277,-0.09639 2.80277,-0.214195 z"
         id="path1"
         sodipodi:nodetypes="cscssscssscsssscsssscsssssscsssscssssscccsssssscsssscscscsssssscssssssssssscssscsccscsssscccsssscsssssccscsssscssssscsssscsssscscssssssscssscscsssscsscsssssscsssssscsssssssssssscsscsssssssscssscsscssscsssscsscsssssscssscssscsscssscssssssscssscssccccccccssccssssssccsscsscsssssssscscsssssscsscsssssssscccsssssscsscsssssssssccsssssssscssssscsscssssscscssscsssssssssssscsssscsscsccsssscscsscsscssscsscscsscssssssssscsssssssscsssssssssscccsssssscscccsscssscsssscsscsscssssscccssscss" /></g><path
       d="m 60.449784,214.77645 c -4.931601,-3.30861 -5.9282,-4.07979 -6.359489,-4.92102 -0.493712,-0.96299 -0.515758,-1.49888 -0.636132,-15.46229 l -0.124697,-14.46472 -0.685413,-1.60067 c -0.376977,-0.88038 -0.645711,-1.64038 -0.597186,-1.68891 0.04852,-0.0485 2.228068,-0.0577 4.843428,-0.0204 l 4.755199,0.0679 -0.728877,1.70807 -0.728879,1.70808 v 13.67493 13.67494 l 2.182178,1.83875 c 3.233215,2.72439 3.988686,3.25088 4.353579,3.03407 0.404123,-0.24011 4.284652,-3.51206 5.372694,-4.5301 l 0.810527,-0.75837 V 193.77796 180.51922 L 72.033846,178.63 c -0.480085,-1.03906 -0.872869,-1.92952 -0.872869,-1.97878 0,-0.0493 2.188404,-0.0896 4.863134,-0.0896 2.67473,0 4.863143,0.0335 4.863143,0.0744 0,0.0409 -0.334466,1.02287 -0.743255,2.18218 l -0.743255,2.10785 -0.01037,13.84123 c -0.01169,15.57986 0.04345,15.09657 -1.898805,16.63192 -1.131901,0.89475 -10.838619,7.31181 -11.050191,7.30521 -0.07889,-0.003 -2.775139,-1.77002 -5.991567,-3.92791 z m -47.68233,0.75264 0.659339,-1.93279 0.07074,-16.63763 0.07074,-16.63764 -0.729889,-1.87969 -0.729888,-1.8797 4.150631,0.0164 4.150633,0.0164 4.477059,6.73359 c 2.462382,3.70347 4.552929,6.78047 4.645661,6.83778 0.09273,0.0573 0.478941,-0.37091 0.858245,-0.95162 0.379304,-0.58071 2.497241,-3.66131 4.706528,-6.84581 l 4.016885,-5.78998 3.901432,-0.008 3.901431,-0.008 -0.596991,1.87993 -0.596992,1.87995 0.0028,16.13861 0.0028,16.13861 0.742609,2.36922 c 0.408435,1.30308 0.743861,2.39728 0.745392,2.43157 0.0015,0.0343 -2.197636,0.0623 -4.887037,0.0623 -4.55853,0 -4.87776,-0.0296 -4.711797,-0.43644 0.09791,-0.24003 0.502711,-1.38335 0.899553,-2.54069 l 0.72153,-2.10427 -0.0075,-12.60985 c -0.0055,-9.13573 -0.08163,-12.48243 -0.276353,-12.14737 -0.147823,0.25435 -1.453555,2.10609 -2.901627,4.11496 -1.448071,2.00887 -3.408124,4.7467 -4.355671,6.08407 -0.947547,1.33735 -1.821424,2.43156 -1.941947,2.43156 -0.120523,0 -0.580448,-0.53307 -1.022055,-1.18461 -0.441606,-0.65153 -2.551241,-3.59747 -4.688075,-6.54653 l -3.885153,-5.36192 -0.06464,12.67636 -0.06464,12.67638 0.848348,2.47417 0.848349,2.47418 h -4.809967 -4.809833 z m 73.880471,-0.47704 0.723508,-2.40983 v -16.00147 -16.00148 l -0.623481,-1.83311 c -0.342912,-1.00821 -0.623472,-1.92568 -0.623472,-2.03881 0,-0.11314 1.809646,-0.20571 4.021436,-0.20571 h 4.021445 l -0.168345,0.81051 c -0.09256,0.4458 -0.229878,1.10422 -0.305105,1.46318 -0.11837,0.56489 0.559998,1.48708 5.044967,6.85827 5.884522,7.04728 8.570282,10.15841 8.873602,10.27902 0.11499,0.0457 0.20908,-3.45707 0.20908,-7.78399 0,-7.6087 -0.0196,-7.92887 -0.597,-9.74706 l -0.59699,-1.87993 h 4.69119 4.69119 l -0.84755,2.05748 -0.84753,2.05748 -0.005,15.98948 -0.005,15.98948 0.87166,2.34081 c 0.47941,1.28744 0.8722,2.36887 0.87287,2.40316 6.7e-4,0.0343 -2.17054,0.0623 -4.82491,0.0623 h -4.82613 l 0.70801,-2.43158 c 0.6503,-2.23336 0.70827,-2.76777 0.71116,-6.55614 l 0.003,-4.12458 -2.55627,-2.75337 c -1.40595,-1.51436 -4.52023,-4.90807 -6.920621,-7.5416 l -4.364356,-4.78822 -0.06485,11.50785 -0.06485,11.50785 0.750683,2.34349 c 0.412879,1.28891 0.750682,2.45436 0.750682,2.58989 0,0.15359 -1.775553,0.24641 -4.713772,0.24641 h -4.713782 z m 34.391385,2.20722 c 0,-0.11144 0.33669,-1.19864 0.74818,-2.41601 l 0.74817,-2.2134 V 196.4923 180.35474 l -0.74817,-1.75819 c -0.41149,-0.967 -0.74818,-1.82045 -0.74818,-1.89655 0,-0.0761 2.13231,-0.13836 4.73845,-0.13836 2.60614,0 4.73844,0.0445 4.73844,0.0988 0,0.0544 -0.33629,0.92412 -0.74731,1.93279 l -0.74733,1.83393 -8.5e-4,16.13794 -8.6e-4,16.13793 0.85043,2.3794 0.85043,2.37939 h -4.8407 c -2.66238,0 -4.8407,-0.0911 -4.8407,-0.2026 z m 14.96351,0.003 c 0,-0.10992 0.27821,-1.14802 0.61825,-2.30687 l 0.61825,-2.10703 0.006,-16.37683 c 0.005,-16.08345 -0.004,-16.39841 -0.51752,-17.58211 -0.28752,-0.66291 -0.62142,-1.4578 -0.742,-1.76642 l -0.21925,-0.56113 h 4.38486 c 3.77925,0 4.3652,0.0513 4.24248,0.37105 -0.0783,0.20408 -0.21416,0.91208 -0.30187,1.57334 l -0.1595,1.20229 2.30653,2.8244 c 3.3839,4.14366 11.2561,13.34342 11.50047,13.43991 0.1158,0.0457 0.21053,-3.37718 0.21051,-7.60645 -4e-5,-7.48813 -0.0163,-7.74184 -0.61974,-9.68471 -0.34084,-1.09732 -0.62139,-2.02319 -0.62344,-2.05748 -0.002,-0.0343 2.02833,-0.0623 4.51198,-0.0623 4.20398,0 4.50314,0.0302 4.33321,0.43644 -1.13419,2.71179 -1.11779,2.42578 -1.11779,19.49544 v 16.14656 l 0.83967,2.4109 0.83968,2.4109 h -4.79971 -4.7997 l 0.63485,-2.05748 c 0.55815,-1.80893 0.64676,-2.60794 0.73342,-6.61406 l 0.0985,-4.55658 -1.66228,-1.8029 c -0.91426,-0.99161 -4.0355,-4.42322 -6.9361,-7.62583 l -5.27381,-5.8229 -0.0648,11.85175 -0.0648,11.85173 0.75058,2.31568 c 0.41282,1.27362 0.75059,2.34828 0.75059,2.38813 0,0.0399 -2.1323,0.0725 -4.73845,0.0725 -2.60614,0 -4.73844,-0.0899 -4.73844,-0.19985 z m 35.08702,-0.98476 c 1.09577,-3.48226 1.06873,-2.98523 1.07181,-19.69625 l 0.003,-16.01773 -0.59809,-1.56439 c -0.32894,-0.86041 -0.67763,-1.76078 -0.77485,-2.00082 -0.16422,-0.40546 0.12375,-0.43644 4.05683,-0.43644 h 4.2336 l -0.32871,1.41407 -0.32871,1.41407 0.79134,1.0175 c 0.72341,0.93015 6.2935,7.71292 10.87096,13.23769 1.02281,1.23449 2.00998,2.28081 2.19371,2.32516 0.27373,0.0661 0.33309,-1.30716 0.32873,-7.60644 l -0.006,-7.68709 -0.69625,-2.05748 -0.69624,-2.05748 h 4.58393 4.58393 l -0.16277,0.56113 c -0.0896,0.30862 -0.37766,1.15453 -0.64029,1.8798 -0.4522,1.24877 -0.47751,2.18752 -0.47751,17.71249 v 16.39384 l 0.74817,1.94298 c 0.4115,1.06865 0.74818,2.04807 0.74818,2.17649 0,0.13689 -1.96063,0.23351 -4.73844,0.23351 -2.60615,0 -4.73844,-0.0423 -4.73844,-0.0942 0,-0.0517 0.33603,-1.14598 0.74673,-2.43157 0.70655,-2.21166 0.74681,-2.56276 0.74818,-6.52463 l 0.002,-4.18718 -1.5587,-1.67766 c -0.85729,-0.92272 -3.52266,-3.86078 -5.92305,-6.52904 -2.4004,-2.66827 -4.7824,-5.30372 -5.29334,-5.85657 l -0.92899,-1.00519 -0.007,11.86168 -0.007,11.86167 0.74817,2.21339 c 0.4115,1.21737 0.74818,2.24846 0.74818,2.29131 0,0.0429 -2.17743,0.0779 -4.83873,0.0779 h -4.83873 z"
       style="fill:#000000;stroke-width:0.942583"
       id="path1-0" /></g></svg>
