<?xml version="1.0" encoding="UTF-8" standalone="no"?>
<!-- Created with Inkscape (http://www.inkscape.org/) -->

<svg
   width="199.96828mm"
   height="207.50757mm"
   viewBox="0 0 199.96828 207.50757"
   version="1.1"
   id="svg1"
   xml:space="preserve"
   inkscape:version="1.4.3 (0d15f75, 2025-12-25)"
   sodipodi:docname="logo.svg"
   xmlns:inkscape="http://www.inkscape.org/namespaces/inkscape"
   xmlns:sodipodi="http://sodipodi.sourceforge.net/DTD/sodipodi-0.dtd"
   xmlns="http://www.w3.org/2000/svg"
   xmlns:svg="http://www.w3.org/2000/svg"><sodipodi:namedview
     id="namedview1"
     pagecolor="#ffffff"
     bordercolor="#000000"
     borderopacity="0.25"
     inkscape:showpageshadow="2"
     inkscape:pageopacity="0.0"
     inkscape:pagecheckerboard="0"
     inkscape:deskcolor="#d1d1d1"
     inkscape:document-units="mm"
     inkscape:zoom="0.51591118"
     inkscape:cx="-660.96648"
     inkscape:cy="24.228977"
     inkscape:window-width="2560"
     inkscape:window-height="1326"
     inkscape:window-x="1728"
     inkscape:window-y="30"
     inkscape:window-maximized="1"
     inkscape:current-layer="layer1" /><defs
     id="defs1"><filter
       inkscape:collect="always"
       style="color-interpolation-filters:sRGB"
       id="filter3"
       x="-0.11155614"
       y="-0.10590958"
       width="1.2231095"
       height="1.2118439"><feGaussianBlur
         inkscape:collect="always"
         stdDeviation="5.9790555"
         id="feGaussianBlur3" /></filter><filter
       inkscape:collect="always"
       style="color-interpolation-filters:sRGB"
       id="filter4"
       x="-0.080954211"
       y="-0.35533503"
       width="1.1603829"
       height="1.7105959"><feGaussianBlur
         inkscape:collect="always"
         stdDeviation="5.9790555"
         id="feGaussianBlur4" /></filter></defs><g
     inkscape:label="Layer 1"
     inkscape:groupmode="layer"
     id="layer1"
     transform="translate(-6.367313,-22.399746)"><path
       style="fill:#ffffff;stroke-width:1.243;fill-opacity:1;stroke:#717171;stroke-opacity:1;stroke-dasharray:none;filter:url(#filter3);opacity:0.60064412"
       d="M 102.86817,169.43456 C 96.54409,168.88803 89.816763,167.07967 83.298218,164.174 l -2.736017,-1.21959 -2.999996,0.27816 c -3.643677,0.33786 -10.994522,0.12853 -14.472017,-0.41212 -9.153088,-1.42306 -17.852925,-4.62356 -22.420681,-8.24815 l -1.471777,-1.16787 0.15368,-4.01932 c 0.176975,-4.62859 0.469452,-7.00339 1.293593,-10.50351 1.279735,-5.43501 3.180483,-9.90798 6.185954,-14.5572 l 1.51075,-2.337 -0.312054,-1.40388 C 46.602462,114.16283 46.126579,105.48068 46.856964,99.188597 48.131717,88.206912 52.631926,77.471374 59.582534,68.830905 65.975694,60.883419 74.18626,54.82141 84.132413,50.70529 l 2.836637,-1.173913 1.437439,-2.764272 c 4.065247,-7.817692 8.98289,-13.097816 16.278321,-17.478222 2.55365,-1.533287 2.32631,-1.558979 5.86522,0.662823 6.18112,3.880629 11.71837,10.120849 15.41845,17.375883 l 1.21097,2.374437 1.87265,0.661132 c 4.90981,1.733399 11.56706,5.548768 16.36653,9.379897 2.81114,2.243969 7.04055,6.411631 9.17754,9.043539 1.90474,2.345882 4.38513,5.826218 4.38513,6.152965 0,0.103165 -0.35275,0.08643 -0.7839,-0.03723 -0.43115,-0.123648 -1.59717,-0.298516 -2.59117,-0.38859 l -1.80726,-0.163764 -2.01642,-2.542099 c -2.1853,-2.755009 -6.10674,-6.68479 -8.88701,-8.905924 -6.42567,-5.133422 -14.54892,-9.048196 -22.3584,-10.775019 -5.32855,-1.178243 -14.44426,-1.938372 -17.79366,-1.483755 l -1.49636,0.2031 -1.21446,2.443289 c -0.667947,1.343809 -1.152454,2.505291 -1.07667,2.58107 0.07578,0.07578 1.27199,0.01439 2.65824,-0.136416 14.60338,-1.588677 29.10178,3.018305 40.16733,12.763483 1.28059,1.127782 3.06258,2.892212 3.95999,3.920956 l 1.63165,1.870443 -2.45789,0.323806 -2.45789,0.323814 -1.40199,-1.475754 c -1.61894,-1.704124 -3.89805,-3.647853 -6.38982,-5.449506 -1.64439,-1.188964 -2.86801,-1.942767 -2.86801,-1.766834 0,0.04308 0.2227,1.64624 0.49489,3.562606 0.71667,5.045863 0.74491,4.901393 -0.69482,3.554696 -0.65863,-0.616072 -1.65246,-1.421207 -2.20852,-1.789192 l -1.01103,-0.669064 -0.54495,-3.118592 c -0.29973,-1.715227 -0.6447,-3.380953 -0.76662,-3.701619 -0.16752,-0.440603 -0.72857,-0.765657 -2.2967,-1.33063 -1.14127,-0.411181 -2.4258,-0.823292 -2.8545,-0.915802 l -0.77946,-0.168201 0.68297,2.880998 c 0.37564,1.584547 0.67028,2.879109 0.65476,2.876799 -0.0155,-0.0019 -0.98212,-0.388278 -2.14803,-0.857712 l -2.11983,-0.853509 -0.53628,-2.072645 c -0.29494,-1.139952 -0.59652,-2.360046 -0.67015,-2.71132 -0.12221,-0.582922 -0.304,-0.666545 -2.08235,-0.957887 -3.33799,-0.546855 -9.78706,-0.633564 -13.04638,-0.175411 -1.57741,0.22173 -3.287977,0.519771 -3.801279,0.662312 -0.974876,0.270718 -0.973339,0.267942 -1.371543,2.471643 l -0.201053,1.112586 -1.940703,0.300065 c -1.06738,0.165036 -2.107558,0.364093 -2.311486,0.44235 -0.44373,0.170272 -0.359322,-0.46691 0.546472,-4.125399 2.139832,-8.642822 6.459831,-15.78886 12.563752,-20.782666 1.7262,-1.412253 1.7634,-1.42824 2.38146,-1.023275 1.33411,0.874143 4.24036,3.847673 5.79381,5.927943 1.55536,2.082825 1.67484,2.183093 2.77643,2.330054 0.63312,0.08447 2.04893,0.299465 3.14626,0.477783 1.09732,0.178317 2.02257,0.301489 2.0561,0.273715 0.135,-0.111799 -1.90701,-3.274382 -3.42912,-5.310892 -2.27457,-3.043253 -5.55759,-6.216997 -8.46694,-8.185079 l -2.48176,-1.678834 -1.38228,0.837748 c -2.4902,1.50922 -4.46031,3.134239 -7.132362,5.883046 -5.720252,5.884556 -9.572466,13.636417 -11.483402,23.108232 -0.420203,2.082785 -0.783202,3.803001 -0.806672,3.822692 -0.09866,0.08285 -4.4229,1.83683 -4.528404,1.83683 -0.06353,0 -0.04411,-0.357013 0.04317,-0.793363 l 0.158674,-0.793372 -0.975432,0.59117 c -0.53649,0.325134 -1.256001,0.761861 -1.598913,0.970502 -5.486256,3.337969 -11.362619,10.033267 -14.589285,16.622439 -0.631402,1.289388 -1.547223,2.93624 -2.035156,3.659673 -1.360145,2.016618 -3.009815,5.449184 -3.591368,7.472778 -0.335926,1.168897 -0.557551,2.780563 -0.617618,4.491325 l -0.09368,2.66823 -1.444895,1.91278 -1.444896,1.91277 -0.07863,-1.58831 C 55.357426,101.82256 56.50675,95.244964 58.154509,90.284659 59.217124,87.085834 62.082834,81.17108 63.9711,78.279367 68.303348,71.644904 74.410729,65.967783 80.77503,62.659259 l 2.222507,-1.155389 0.917849,-3.146619 c 0.504819,-1.730639 0.879845,-3.146618 0.833385,-3.146618 -0.04647,0 -1.179049,0.481837 -2.516875,1.070747 -8.94678,3.938359 -17.733259,11.575472 -22.868304,19.876893 -6.445883,10.420537 -9.476738,22.3406 -8.647663,34.010427 0.263576,3.71003 0.619728,6.56697 0.846982,6.79421 0.03785,0.0379 0.514686,-0.0281 1.059628,-0.14646 0.544943,-0.11841 1.8727,-0.29476 2.950573,-0.39189 l 1.959768,-0.17661 -2.356456,3.08688 c -3.232156,4.23401 -4.585095,6.30401 -6.500073,9.94514 -2.041751,3.88218 -2.969376,6.27575 -3.914392,10.10036 -0.895654,3.62486 -1.24898,6.38602 -1.24898,9.76053 v 2.54125 l 1.740899,1.0037 c 13.760966,7.93379 33.86132,8.61508 51.25484,1.73727 3.136963,-1.24044 8.386632,-3.86808 10.639492,-5.32545 0.94653,-0.6123 1.74643,-1.11328 1.77756,-1.11328 0.0311,0 0.82106,0.73133 1.75538,1.62519 2.4714,2.36439 6.68351,5.11231 7.82645,5.10587 0.45572,-0.003 5.27125,-1.62184 5.49827,-1.84885 0.0688,-0.0688 -0.19804,-0.26008 -0.59296,-0.42506 -6.47607,-2.70541 -9.64953,-5.10571 -12.42714,-9.39946 -2.21738,-3.42772 -3.41618,-7.09087 -4.40305,-13.45429 l -0.55176,-3.55779 -0.47037,1.31326 c -1.91311,5.34146 -1.90326,11.0746 0.0255,14.85536 0.59343,1.16322 0.69984,1.02005 -2.21914,2.98577 -4.80972,3.23899 -10.419191,5.60011 -17.239268,7.25631 -5.730442,1.39158 -8.003801,1.64769 -14.558174,1.64005 -7.925129,-0.009 -11.142055,-0.54803 -19.509612,-3.26759 l -4.296716,-1.39648 -0.165112,-0.88013 c -0.538092,-2.86827 0.579962,-9.78896 2.195803,-13.5919 1.255805,-2.95558 3.782975,-7.46838 5.895562,-10.52777 5.907791,-8.55552 10.767543,-15.95663 10.767543,-16.39831 0,-0.51551 -0.01744,-0.51304 -0.685828,0.097 -1.381564,1.26085 -5.404401,4.01601 -6.397719,4.38167 -0.561926,0.20685 -1.665126,0.57775 -2.451556,0.82421 -1.41904,0.44471 -1.427856,0.44434 -1.163876,-0.0489 1.173864,-2.19339 8.836528,-13.680821 12.445718,-18.657923 2.484488,-3.426128 2.511351,-3.473003 1.677872,-2.927964 -1.401469,0.916474 -6.968221,3.956539 -7.065958,3.858803 -0.05626,-0.05627 0.30675,-0.877903 0.806689,-1.825878 3.428703,-6.501409 9.20879,-11.832818 16.560023,-15.274527 2.488673,-1.165155 6.400382,-2.559838 8.176586,-2.915296 0.455597,-0.09115 0.784153,-0.20997 0.730134,-0.263998 -0.05401,-0.05401 -1.204065,-0.212892 -2.555635,-0.353045 -2.756838,-0.285866 -7.839763,0.02017 -10.038432,0.60445 -0.720124,0.191364 -1.309314,0.310591 -1.309314,0.26496 0,-0.04562 0.781279,-0.602367 1.736163,-1.237168 3.813096,-2.534945 11.338291,-5.520472 16.629707,-6.597637 14.52061,-2.955951 28.79275,0.510672 36.81681,8.942595 l 2.05466,2.15909 1.10976,-0.321299 c 0.66529,-0.192616 2.36296,-0.312984 4.2387,-0.300533 1.87492,0.01244 4.07844,-0.143715 5.49814,-0.389654 3.29615,-0.571026 9.08368,-0.765557 11.84611,-0.398175 4.613,0.613489 8.2542,2.353959 11.24879,5.376832 2.94839,2.976243 4.02233,5.722006 4.26203,10.896729 l 0.14654,3.163855 -1.48581,-1.444914 c -1.17548,-1.143117 -1.84697,-1.569542 -3.21494,-2.041597 -1.57932,-0.544982 -2.10722,-0.594864 -6.09347,-0.575767 -3.97986,0.01904 -4.5621,0.08003 -6.60888,0.691592 -2.88047,0.860691 -5.33356,2.061071 -7.36411,3.603476 -1.8019,1.368734 -5.23743,4.878643 -6.29349,6.429753 l -0.68924,1.01233 1.25561,2.1015 c 1.5269,2.55558 4.94179,9.4505 6.08472,12.28553 0.94962,2.35556 1.97852,5.82522 2.37381,8.00503 0.559,3.0826 0.23218,9.01497 -0.58226,10.5694 -0.30365,0.57952 -0.30509,0.5789 -1.01062,-0.4392 -1.12461,-1.6228 -2.27622,-2.51522 -6.1257,-4.747 -3.16563,-1.83531 -5.3506,-2.94466 -11.59033,-5.88465 -0.82299,-0.38778 -1.58052,-0.74784 -1.68339,-0.80013 -0.3061,-0.15561 -0.21346,1.58001 0.19405,3.63551 0.53684,2.7079 2.22137,6.03802 4.08079,8.06724 1.47597,1.61076 4.41061,3.76033 5.22348,3.8261 0.22825,0.0185 0.95435,0.2411 1.61358,0.49474 l 1.19858,0.46116 1.24881,-1.22382 c 0.68684,-0.67311 1.64865,-1.74526 2.13736,-2.38256 l 0.88856,-1.15872 1.34015,1.50193 c 0.73708,0.82606 1.34014,1.58494 1.34014,1.68639 0,0.31525 -3.27114,3.83892 -5.29283,5.70144 -3.76452,3.46811 -8.02061,6.26795 -13.69079,9.00636 -9.78791,4.72708 -20.4851,6.10958 -29.663529,3.83367 -1.620441,-0.4018 -1.656608,-0.39934 -3.616172,0.24595 -1.088655,0.35849 -3.030772,0.92098 -4.315814,1.24996 -1.285042,0.32898 -2.227521,0.66547 -2.0944,0.74773 0.133121,0.0823 1.127536,0.49057 2.20982,0.90732 9.784945,3.76785 21.899365,3.90553 32.646815,0.37103 5.79208,-1.90483 14.61224,-6.76555 19.70053,-10.85682 4.81279,-3.86973 10.87347,-10.67521 12.98785,-14.58392 l 0.69705,-1.2886 -1.65787,-2.4824 c -0.91183,-1.36532 -1.88636,-2.68919 -2.16564,-2.94194 -0.30127,-0.27264 -0.50851,-0.77346 -0.50955,-1.23141 -0.002,-0.8773 -0.62392,-4.9426 -0.90021,-5.8844 -0.12498,-0.42606 0.25188,-0.11021 1.1903,0.99757 3.48028,4.10843 7.97561,10.62737 9.21819,13.36785 1.69403,3.7361 2.88606,8.56723 2.67148,10.82712 -0.0756,0.79573 -0.21902,0.93622 -1.70355,1.66823 -3.30184,1.6281 -8.11518,2.84154 -13.33733,3.36231 -2.91644,0.29085 -3.01145,0.3196 -3.99026,1.20792 -0.55148,0.5005 -1.8798,1.60134 -2.95181,2.44631 l -1.94913,1.53632 h 3.60964 c 8.20366,0 15.60804,-1.72778 22.23507,-5.18846 l 2.74332,-1.43258 -0.0267,-2.98662 c -0.0306,-3.43025 -0.53439,-6.60458 -1.64158,-10.34368 -1.33496,-4.50826 -3.4694,-8.58393 -6.98924,-13.34583 -2.06576,-2.79472 -8.37145,-9.3993 -11.55187,-12.09943 -1.8725,-1.58973 -2.22715,-2.03837 -3.5055,-4.43451 -0.78223,-1.46622 -1.60217,-2.94207 -1.82207,-3.27968 -0.33629,-0.51627 -0.34038,-0.57897 -0.0257,-0.39453 1.52695,0.89518 5.81034,3.9554 7.98053,5.70161 2.00537,1.61359 2.66591,2.02515 2.8206,1.75738 0.5963,-1.0322 0.44454,-10.75922 -0.23509,-15.068584 l -0.13986,-0.88682 1.29011,-0.29779 c 2.26433,-0.522672 2.42128,-0.467634 2.72662,0.956137 0.85759,3.998797 0.94913,13.009767 0.17473,17.201057 l -0.34558,1.87043 0.78215,0.61653 c 0.43019,0.33909 1.40959,1.20889 2.17646,1.93287 l 1.39429,1.31635 0.28939,-1.30939 c 1.19517,-5.4079 1.58613,-13.22969 0.938,-18.76682 -0.22477,-1.92031 -0.47915,-3.7565 -0.56529,-4.080418 -0.14765,-0.555229 -0.10816,-0.579189 0.69026,-0.418677 0.46578,0.0936 1.46413,0.470887 2.21853,0.838324 1.29011,0.628354 1.3826,0.734791 1.55577,1.790333 0.3828,2.333288 0.51079,10.582168 0.21093,13.592868 -0.45319,4.54997 -1.53166,10.14976 -2.37833,12.34901 -0.0864,0.2246 0.42801,1.24148 1.26176,2.49392 1.97093,2.96068 3.41239,6.01865 4.69336,9.95673 1.4002,4.30467 2.13236,8.58091 2.30812,13.48095 l 0.13866,3.86557 -1.26847,0.95591 c -3.75044,2.8263 -11.9114,5.90124 -19.06455,7.18326 -3.62201,0.64916 -12.54529,0.91595 -16.21155,0.4847 l -2.54435,-0.29929 -2.86801,1.35912 c -5.2482,2.48706 -11.15205,4.28161 -16.50847,5.01795 -3.35125,0.4607 -9.18477,0.64715 -12.17157,0.38902 z m 8.58305,-13.17309 0.9766,-0.17349 -1.76623,-1.42704 -1.76622,-1.42705 -2.82656,1.42787 -2.82656,1.42787 0.99758,0.15165 c 1.40851,0.21413 6.04662,0.22712 7.21139,0.0202 z m -36.203188,-6.19261 c 1.379489,-0.22802 1.205771,-0.82131 -0.499371,-1.70541 -2.905879,-1.50668 -10.17271,-9.22641 -14.383763,-15.2802 -0.787156,-1.13162 -1.520642,-2.05749 -1.629969,-2.05749 -0.274411,0 -2.752404,3.23945 -2.752404,3.59819 0,0.33999 1.888635,3.44786 3.19016,5.24962 2.527061,3.49831 7.502169,8.73375 9.404123,9.89621 0.594722,0.36349 1.259658,0.45691 3.242089,0.45547 1.371656,-9.4e-4 2.914768,-0.0713 3.429135,-0.15639 z m 79.572398,-1.46323 c 0.9349,-0.21469 2.60171,-0.67526 3.70401,-1.02348 l 2.00418,-0.63312 -0.17356,-1.16571 c -0.0955,-0.64114 -0.47166,-2.08516 -0.83601,-3.20893 l -0.66245,-2.04323 -1.8005,2.54201 c -0.99028,1.3981 -2.47727,3.28964 -3.30444,4.20341 -1.59153,1.75817 -1.77159,2.07087 -1.0675,1.8539 0.24005,-0.074 1.20136,-0.31015 2.13627,-0.52485 z m -94.637371,-0.88905 c -1.95947,-2.28904 -3.913943,-4.94088 -5.235602,-7.10371 -0.879367,-1.43903 -1.361491,-2.02114 -1.487495,-1.79598 -0.333714,0.59631 -1.218313,5.44858 -1.218313,6.68278 v 1.20231 l 1.434002,0.42671 c 2.449469,0.72885 6.648669,1.80684 7.130887,1.83058 0.356877,0.0175 0.217465,-0.2603 -0.623479,-1.24269 z m 16.000194,-0.23103 c 0,-0.13748 0.646443,-0.24939 1.44054,-0.24939 1.411056,0 5.571843,-0.44507 5.740867,-0.61409 0.04703,-0.047 -0.439488,-0.79793 -1.081265,-1.66855 -2.272444,-3.08271 -3.965927,-7.21459 -4.613481,-11.2563 l -0.311184,-1.94223 -0.480765,1.06936 c -0.977468,2.17416 -1.517238,5.14324 -1.543055,8.48776 -0.01348,1.74831 -0.04458,3.17919 -0.06919,3.17974 -0.176065,0.004 -2.471047,-3.98663 -3.19971,-5.56372 -1.328213,-2.87475 -1.8764,-5.29861 -2.042851,-9.03265 -0.155262,-3.48317 0.102223,-5.69772 0.939463,-8.0798 0.265186,-0.75451 0.48216,-1.41198 0.48216,-1.46103 0,-0.049 -0.86975,0.59813 -1.932785,1.4382 -1.063036,0.84006 -3.195328,2.48204 -4.738442,3.64883 -1.543112,1.1668 -2.805657,2.1825 -2.805657,2.25711 0,0.0746 0.476962,0.90598 1.059914,1.8475 l 1.059916,1.71184 1.246958,-1.22781 1.246962,-1.22781 0.06796,1.54803 c 0.08794,2.00277 0.706287,5.69549 1.219787,7.28404 1.316053,4.0713 4.377327,8.1936 7.191578,9.68413 0.884463,0.46844 1.122267,0.50379 1.122267,0.16684 z m 58.143447,-0.92412 c 0.66648,-0.50826 1.2083,-0.98523 1.20404,-1.05992 -0.005,-0.0746 -1.19397,-0.92137 -2.64379,-1.88153 -4.91652,-3.256 -8.82093,-8.028 -9.92417,-12.12942 l -0.35984,-1.33774 -0.0164,1.79582 c -0.0214,2.34265 0.34763,4.02223 1.37754,6.26958 1.12544,2.45579 2.66915,4.56543 4.83754,6.61098 1.97343,1.86164 3.11977,2.65399 3.84171,2.65541 0.25938,5.2e-4 1.0169,-0.41491 1.68339,-0.92318 z m -13.11333,-2.12113 c -1.47048,-1.96981 -3.48881,-6.01446 -4.14284,-8.30207 -0.27451,-0.96016 -0.56928,-2.62089 -0.65505,-3.69052 -0.0858,-1.06962 -0.23214,-1.85521 -0.32528,-1.74575 -0.50199,0.59 -1.12573,3.62351 -1.11779,5.43627 0.0102,2.3131 0.67297,4.04747 2.40471,6.29212 0.94663,1.22701 4.5941,3.99148 4.88395,3.70163 0.0678,-0.0678 -0.40372,-0.82901 -1.0477,-1.69168 z m -25.90658,-0.10661 c 1.553489,-0.86876 1.616067,-0.94034 1.471881,-1.6834 -0.343968,-1.77262 -0.450536,-9.07118 -0.164274,-11.2505 0.638958,-4.86451 2.053144,-10.29011 3.533813,-13.55765 0.90187,-1.99026 0.56819,-1.73075 -2.19017,1.70333 -4.053437,5.04642 -6.065286,10.83709 -6.061666,17.44723 0.0019,3.67542 0.84676,8.24832 1.523695,8.24832 0.145346,0 0.994368,-0.4083 1.886721,-0.90733 z m 48.86602,-14.36791 c -0.89423,-0.99445 -4.79391,-4.89431 -8.66597,-8.66636 -7.54411,-7.34927 -9.52803,-9.49128 -12.86651,-13.89191 l -2.13117,-2.80919 0.80748,-1.33232 c 2.15865,-3.561763 5.29694,-6.14281 10.91627,-8.977958 8.98819,-4.534841 14.64081,-6.029702 22.75812,-6.018495 4.85699,0.0066 7.27784,0.396639 10.17653,1.639161 0.61418,0.263273 1.16517,0.430204 1.2244,0.370972 0.30341,-0.303408 -1.43163,-3.18707 -2.6555,-4.413474 -1.5251,-1.528267 -4.5303,-3.164553 -7.12438,-3.879125 -2.34961,-0.647224 -8.82946,-0.749645 -12.37125,-0.195539 -1.56291,0.244516 -4.24447,0.45211 -5.95904,0.461329 -2.46068,0.0132 -3.27501,0.106587 -3.86557,0.443202 l -0.74817,0.426444 1.40773,0.01 c 1.47548,0.01046 4.17357,0.731312 5.76228,1.539502 0.51437,0.26167 0.93521,0.510861 0.93521,0.553767 0,0.04289 -1.43088,0.07079 -3.17974,0.06202 -2.39689,-0.01207 -3.54814,0.09571 -4.67609,0.43783 -1.79403,0.544143 -4.16417,1.766315 -4.78687,2.46836 -0.44211,0.498448 -0.43973,0.502161 0.13037,0.202797 1.80094,-0.945684 5.64645,-1.388726 7.77389,-0.895623 0.85484,0.198131 0.83165,0.213514 -1.12226,0.744169 -3.97467,1.079465 -8.01815,3.15112 -11.79325,6.042201 -3.41469,2.615065 -5.70007,6.07095 -6.27712,9.49205 -0.27238,1.61492 -0.25467,1.87284 0.19904,2.89854 0.62342,1.40934 2.93515,4.55841 4.76109,6.48564 0.76386,0.80622 3.03795,3.02269 5.05354,4.92548 2.0156,1.90279 3.62687,3.45962 3.5806,3.45962 -0.0463,0 -1.47093,-0.7227 -3.16593,-1.606 -4.45729,-2.32278 -6.8837,-3.23899 -10.56357,-3.98877 -0.41149,-0.0838 0.65466,0.59291 2.36923,1.50389 1.71457,0.91098 4.8569,2.63687 6.98297,3.8353 2.12606,1.19843 5.88564,3.25694 8.35462,4.57447 2.46897,1.31752 5.77965,3.17804 7.35705,4.13446 1.57741,0.95643 2.90397,1.74633 2.94792,1.75533 0.0439,0.009 -0.65172,-0.79726 -1.54595,-1.79171 z m -57.781949,-3.71156 c 2.277883,-9.08231 10.191064,-17.88675 19.347479,-21.52659 0.95896,-0.38121 1.79969,-0.75186 1.86827,-0.82368 0.0686,-0.0718 -1.05367,-0.064 -2.49391,0.0174 -6.055816,0.34234 -11.112905,2.72809 -15.41376,7.27164 -1.106762,1.16922 -2.067377,2.12586 -2.134686,2.12586 -0.17041,0 0.945995,-4.10845 1.544214,-5.68282 1.064733,-2.80216 3.265334,-5.63254 5.48457,-7.05419 l 1.07707,-0.689975 -1.421283,-0.177573 c -0.781712,-0.09767 -2.195699,-0.105607 -3.142194,-0.01763 -1.915564,0.178026 -3.201964,-0.245043 -3.201964,-1.053063 0,-0.898725 0.752078,-2.942725 1.602212,-4.354507 0.805682,-1.33794 0.829973,-1.434724 0.320592,-1.277303 -2.964744,0.916256 -7.153686,4.405858 -9.281218,7.731721 -1.830355,2.86131 -3.644544,7.16694 -4.247825,10.08142 l -0.180684,0.87288 0.992577,-1.24696 c 1.319126,-1.65719 3.094481,-3.28334 4.982305,-4.56356 0.849757,-0.57627 1.605643,-1.04776 1.679749,-1.04776 0.07409,0 -0.08257,0.55134 -0.348181,1.22518 -1.263466,3.20545 -1.845492,10.73194 -1.168463,15.10998 0.470367,3.04169 1.376595,6.22386 2.464279,8.65319 l 0.815428,1.82126 0.189007,-1.74573 c 0.103957,-0.96017 0.40384,-2.60232 0.666416,-3.64922 z m 58.250059,-2.12264 c -1.80183,-5.39824 -5.60962,-10.49012 -10.17001,-13.59957 l -1.44165,-0.98298 1.12828,1.76023 c 0.62056,0.96813 1.07737,1.76023 1.01516,1.76023 -0.0622,0 -1.64169,-0.9005 -3.50995,-2.00111 -6.25519,-3.68502 -6.29449,-3.68388 -2.41165,0.0697 4.02776,3.8937 6.37579,6.11566 11.27296,10.66766 1.98766,1.84756 3.82413,3.61762 4.08105,3.93347 0.25691,0.31585 0.51721,0.52417 0.57845,0.46294 0.0613,-0.0613 -0.18296,-0.99302 -0.54264,-2.07062 z m -31.30302,-25.071241 1.36694,-0.611246 -1.61633,0.100395 c -3.0187,0.187508 -7.17505,-1.249667 -9.94403,-3.438429 -0.70063,-0.553806 -1.27388,-0.929981 -1.27388,-0.835921 0,0.09407 0.3495,0.715647 0.77667,1.381327 1.03587,1.614268 2.73069,3.06905 4.30009,3.69107 1.74763,0.692655 4.47319,0.570168 6.39054,-0.287196 z M 79.018354,91.338616 c 4.242971,-2.839512 8.580181,-4.602538 13.375355,-5.436922 l 2.618618,-0.455654 -1.6725,-0.796096 c -3.140489,-1.494852 -6.505858,-1.314309 -10.24697,0.549705 -1.691361,0.842716 -2.500851,1.477555 -4.665078,3.65855 -1.805103,1.819091 -2.98663,3.269245 -3.803228,4.667869 -0.651532,1.115933 -1.18461,2.107851 -1.18461,2.204267 0,0.09643 0.757526,-0.51925 1.683397,-1.368159 0.925871,-0.848909 2.678622,-2.209518 3.895016,-3.02356 z M 115.0186,94.27577 c 1.42943,-0.724347 3.5281,-2.924675 3.72405,-3.904433 0.0787,-0.393443 0.45405,-0.855997 0.92027,-1.134012 l 0.78736,-0.469538 -1.87043,-0.256383 -1.87044,-0.256382 -0.17956,0.96757 c -0.36276,1.954729 -1.75818,3.145522 -3.68601,3.145522 -1.34546,0 -2.54121,-0.662023 -3.25826,-1.803943 -0.75814,-1.207364 -0.56687,-3.180577 0.40685,-4.196907 0.87895,-0.917435 0.82171,-0.969239 -2.08711,-1.888899 -2.46814,-0.780326 -4.30148,-0.721745 -6.10549,0.195077 l -1.15872,0.588879 h 1.79936 c 0.98964,0 1.99208,0.07927 2.22764,0.176084 0.39053,0.160569 0.39603,0.253291 0.0623,1.051913 -1.68841,4.040928 2.72394,8.874606 7.7674,8.509092 0.70293,-0.05099 1.83401,-0.375648 2.52075,-0.72364 z m 12.23594,-10.931577 c -0.5188,-2.854452 -2.39049,-5.292857 -5.80829,-7.566989 -3.41088,-2.269523 -7.54203,-3.690401 -12.71738,-4.374056 -2.52963,-0.334155 -7.57919,-0.185152 -10.100362,0.298054 l -1.621044,0.310685 0.997563,0.178638 c 0.548659,0.09825 2.119833,0.311844 3.491493,0.474675 2.59253,0.307744 5.19748,0.824129 6.48417,1.285363 1.06221,0.380756 6.12013,2.780855 6.03652,2.864453 -0.0383,0.03827 -0.96321,-0.08964 -2.05546,-0.284264 -2.6172,-0.466306 -6.37438,-0.463016 -8.64084,0.0075 -1.85391,0.384913 -5.304864,1.909937 -6.43815,2.845102 l -0.623471,0.51449 1.476169,-0.498617 c 0.811903,-0.274235 2.459132,-0.629485 3.660522,-0.789441 3.50962,-0.467267 5.49683,0.03356 11.28941,2.844979 3.85103,1.869123 4.96115,2.302004 6.11812,2.385686 1.50316,0.108737 3.26782,-0.418789 3.26782,-0.976874 0,-0.167365 -0.33764,-0.902561 -0.75031,-1.633769 -0.41267,-0.731209 -0.66518,-1.329457 -0.56113,-1.329438 0.40743,7.5e-5 3.99733,2.47133 5.17701,3.563812 0.68583,0.63514 1.31581,1.159245 1.39996,1.164693 0.0842,0.0057 0.0471,-0.572685 -0.0823,-1.284741 z M 109.60175,46.529404 c 0,-0.111043 -0.5456,-0.811041 -1.21243,-1.555552 -1.37988,-1.540631 -1.29761,-1.555356 -3.05814,0.547401 l -1.01311,1.210047 h 2.64184 c 1.45301,0 2.64184,-0.09085 2.64184,-0.201896 z"
       id="path1-1"
       sodipodi:nodetypes="cscssscssscsssscsssscsssssscsssscssssscccsssssscsssscscscsssssscssssssssssscssscsccscsssscccsssscsssssccscsssscssssscsssscsssscscssssssscssscscsssscsscsssssscsssssscsssssssssssscsscsssssssscssscsscssscsssscsscsssssscssscssscsscssscssssssscssscssccccccccssccssssssccsscsscsssssssscscsssssscsscsssssssscccsssssscsscsssssssssccsssssssscssssscsscssssscscssscsssssssssssscsssscsscsccsssscscsscsscssscsscscsscssssssssscsssssssscsssssssssscccsssssscscccsscssscsssscsscsscssssscccssscss" /><path
       id="path2-6"
       style="fill:#b900ed;stroke-width:0.257424"
       d="m 104.59751,83.980077 c -0.99235,0.03171 -1.90196,0.275395 -2.80396,0.733806 l -1.15859,0.589111 1.79938,10e-7 c 0.98964,-10e-7 1.99221,0.07888 2.22777,0.175699 0.39053,0.160569 0.39572,0.253511 0.062,1.052132 -1.68841,4.040929 2.72402,8.874556 7.76748,8.509042 0.70293,-0.05099 1.83404,-0.375479 2.52078,-0.723471 1.42942,-0.724347 3.52836,-2.924912 3.72432,-3.904671 0.0787,-0.393443 0.45414,-0.855766 0.92035,-1.133781 l 0.76998,-0.459403 a 11.355248,6.3488441 8.2570632 0 0 -0.004,-0.01292 11.355248,6.3488441 8.2570632 0 0 0,-5.18e-4 l -1.84949,-0.253214 -1.87069,-0.256315 -0.17932,0.967382 c -0.36275,1.954729 -1.75824,3.145545 -3.68608,3.145545 -1.34546,0 -2.54115,-0.662104 -3.2582,-1.804025 -0.75815,-1.207363 -0.56702,-3.180311 0.4067,-4.196641 0.87894,-0.917435 0.8216,-0.969115 -2.08722,-1.888774 -1.23406,-0.390164 -2.30925,-0.570693 -3.3016,-0.538986 z" /><path
       style="fill:#000000;stroke-width:0.942583"
       d="M 102.86817,169.43456 C 96.54409,168.88803 89.816763,167.07967 83.298218,164.174 l -2.736017,-1.21959 -2.999996,0.27816 c -3.643677,0.33786 -10.994522,0.12853 -14.472017,-0.41212 -9.153088,-1.42306 -17.852925,-4.62356 -22.420681,-8.24815 l -1.471777,-1.16787 0.15368,-4.01932 c 0.176975,-4.62859 0.469452,-7.00339 1.293593,-10.50351 1.279735,-5.43501 3.180483,-9.90798 6.185954,-14.5572 l 1.51075,-2.337 -0.312054,-1.40388 C 46.602462,114.16283 46.126579,105.48068 46.856964,99.188597 48.131717,88.206912 52.631926,77.471374 59.582534,68.830905 65.975694,60.883419 74.18626,54.82141 84.132413,50.70529 l 2.836637,-1.173913 1.437439,-2.764272 c 4.065247,-7.817692 8.98289,-13.097816 16.278321,-17.478222 2.55365,-1.533287 2.32631,-1.558979 5.86522,0.662823 6.18112,3.880629 11.71837,10.120849 15.41845,17.375883 l 1.21097,2.374437 1.87265,0.661132 c 4.90981,1.733399 11.56706,5.548768 16.36653,9.379897 2.81114,2.243969 7.04055,6.411631 9.17754,9.043539 1.90474,2.345882 4.38513,5.826218 4.38513,6.152965 0,0.103165 -0.35275,0.08643 -0.7839,-0.03723 -0.43115,-0.123648 -1.59717,-0.298516 -2.59117,-0.38859 l -1.80726,-0.163764 -2.01642,-2.542099 c -2.1853,-2.755009 -6.10674,-6.68479 -8.88701,-8.905924 -6.42567,-5.133422 -14.54892,-9.048196 -22.3584,-10.775019 -5.32855,-1.178243 -14.44426,-1.938372 -17.79366,-1.483755 l -1.49636,0.2031 -1.21446,2.443289 c -0.667947,1.343809 -1.152454,2.505291 -1.07667,2.58107 0.07578,0.07578 1.27199,0.01439 2.65824,-0.136416 14.60338,-1.588677 29.10178,3.018305 40.16733,12.763483 1.28059,1.127782 3.06258,2.892212 3.95999,3.920956 l 1.63165,1.870443 -2.45789,0.323806 -2.45789,0.323814 -1.40199,-1.475754 c -1.61894,-1.704124 -3.89805,-3.647853 -6.38982,-5.449506 -1.64439,-1.188964 -2.86801,-1.942767 -2.86801,-1.766834 0,0.04308 0.2227,1.64624 0.49489,3.562606 0.71667,5.045863 0.74491,4.901393 -0.69482,3.554696 -0.65863,-0.616072 -1.65246,-1.421207 -2.20852,-1.789192 l -1.01103,-0.669064 -0.54495,-3.118592 c -0.29973,-1.715227 -0.6447,-3.380953 -0.76662,-3.701619 -0.16752,-0.440603 -0.72857,-0.765657 -2.2967,-1.33063 -1.14127,-0.411181 -2.4258,-0.823292 -2.8545,-0.915802 l -0.77946,-0.168201 0.68297,2.880998 c 0.37564,1.584547 0.67028,2.879109 0.65476,2.876799 -0.0155,-0.0019 -0.98212,-0.388278 -2.14803,-0.857712 l -2.11983,-0.853509 -0.53628,-2.072645 c -0.29494,-1.139952 -0.59652,-2.360046 -0.67015,-2.71132 -0.12221,-0.582922 -0.304,-0.666545 -2.08235,-0.957887 -3.33799,-0.546855 -9.78706,-0.633564 -13.04638,-0.175411 -1.57741,0.22173 -3.287977,0.519771 -3.801279,0.662312 -0.974876,0.270718 -0.973339,0.267942 -1.371543,2.471643 l -0.201053,1.112586 -1.940703,0.300065 c -1.06738,0.165036 -2.107558,0.364093 -2.311486,0.44235 -0.44373,0.170272 -0.359322,-0.46691 0.546472,-4.125399 2.139832,-8.642822 6.459831,-15.78886 12.563752,-20.782666 1.7262,-1.412253 1.7634,-1.42824 2.38146,-1.023275 1.33411,0.874143 4.24036,3.847673 5.79381,5.927943 1.55536,2.082825 1.67484,2.183093 2.77643,2.330054 0.63312,0.08447 2.04893,0.299465 3.14626,0.477783 1.09732,0.178317 2.02257,0.301489 2.0561,0.273715 0.135,-0.111799 -1.90701,-3.274382 -3.42912,-5.310892 -2.27457,-3.043253 -5.55759,-6.216997 -8.46694,-8.185079 l -2.48176,-1.678834 -1.38228,0.837748 c -2.4902,1.50922 -4.46031,3.134239 -7.132362,5.883046 -5.720252,5.884556 -9.572466,13.636417 -11.483402,23.108232 -0.420203,2.082785 -0.783202,3.803001 -0.806672,3.822692 -0.09866,0.08285 -4.4229,1.83683 -4.528404,1.83683 -0.06353,0 -0.04411,-0.357013 0.04317,-0.793363 l 0.158674,-0.793372 -0.975432,0.59117 c -0.53649,0.325134 -1.256001,0.761861 -1.598913,0.970502 -5.486256,3.337969 -11.362619,10.033267 -14.589285,16.622439 -0.631402,1.289388 -1.547223,2.93624 -2.035156,3.659673 -1.360145,2.016618 -3.009815,5.449184 -3.591368,7.472778 -0.335926,1.168897 -0.557551,2.780563 -0.617618,4.491325 l -0.09368,2.66823 -1.444895,1.91278 -1.444896,1.91277 -0.07863,-1.58831 C 55.357426,101.82256 56.50675,95.244964 58.154509,90.284659 59.217124,87.085834 62.082834,81.17108 63.9711,78.279367 68.303348,71.644904 74.410729,65.967783 80.77503,62.659259 l 2.222507,-1.155389 0.917849,-3.146619 c 0.504819,-1.730639 0.879845,-3.146618 0.833385,-3.146618 -0.04647,0 -1.179049,0.481837 -2.516875,1.070747 -8.94678,3.938359 -17.733259,11.575472 -22.868304,19.876893 -6.445883,10.420537 -9.476738,22.3406 -8.647663,34.010427 0.263576,3.71003 0.619728,6.56697 0.846982,6.79421 0.03785,0.0379 0.514686,-0.0281 1.059628,-0.14646 0.544943,-0.11841 1.8727,-0.29476 2.950573,-0.39189 l 1.959768,-0.17661 -2.356456,3.08688 c -3.232156,4.23401 -4.585095,6.30401 -6.500073,9.94514 -2.041751,3.88218 -2.969376,6.27575 -3.914392,10.10036 -0.895654,3.62486 -1.24898,6.38602 -1.24898,9.76053 v 2.54125 l 1.740899,1.0037 c 13.760966,7.93379 33.86132,8.61508 51.25484,1.73727 3.136963,-1.24044 8.386632,-3.86808 10.639492,-5.32545 0.94653,-0.6123 1.74643,-1.11328 1.77756,-1.11328 0.0311,0 0.82106,0.73133 1.75538,1.62519 2.4714,2.36439 6.68351,5.11231 7.82645,5.10587 0.45572,-0.003 5.27125,-1.62184 5.49827,-1.84885 0.0688,-0.0688 -0.19804,-0.26008 -0.59296,-0.42506 -6.47607,-2.70541 -9.64953,-5.10571 -12.42714,-9.39946 -2.21738,-3.42772 -3.41618,-7.09087 -4.40305,-13.45429 l -0.55176,-3.55779 -0.47037,1.31326 c -1.91311,5.34146 -1.90326,11.0746 0.0255,14.85536 0.59343,1.16322 0.69984,1.02005 -2.21914,2.98577 -4.80972,3.23899 -10.419191,5.60011 -17.239268,7.25631 -5.730442,1.39158 -8.003801,1.64769 -14.558174,1.64005 -7.925129,-0.009 -11.142055,-0.54803 -19.509612,-3.26759 l -4.296716,-1.39648 -0.165112,-0.88013 c -0.538092,-2.86827 0.579962,-9.78896 2.195803,-13.5919 1.255805,-2.95558 3.782975,-7.46838 5.895562,-10.52777 5.907791,-8.55552 10.767543,-15.95663 10.767543,-16.39831 0,-0.51551 -0.01744,-0.51304 -0.685828,0.097 -1.381564,1.26085 -5.404401,4.01601 -6.397719,4.38167 -0.561926,0.20685 -1.665126,0.57775 -2.451556,0.82421 -1.41904,0.44471 -1.427856,0.44434 -1.163876,-0.0489 1.173864,-2.19339 8.836528,-13.680821 12.445718,-18.657923 2.484488,-3.426128 2.511351,-3.473003 1.677872,-2.927964 -1.401469,0.916474 -6.968221,3.956539 -7.065958,3.858803 -0.05626,-0.05627 0.30675,-0.877903 0.806689,-1.825878 3.428703,-6.501409 9.20879,-11.832818 16.560023,-15.274527 2.488673,-1.165155 6.400382,-2.559838 8.176586,-2.915296 0.455597,-0.09115 0.784153,-0.20997 0.730134,-0.263998 -0.05401,-0.05401 -1.204065,-0.212892 -2.555635,-0.353045 -2.756838,-0.285866 -7.839763,0.02017 -10.038432,0.60445 -0.720124,0.191364 -1.309314,0.310591 -1.309314,0.26496 0,-0.04562 0.781279,-0.602367 1.736163,-1.237168 3.813096,-2.534945 11.338291,-5.520472 16.629707,-6.597637 14.52061,-2.955951 28.79275,0.510672 36.81681,8.942595 l 2.05466,2.15909 1.10976,-0.321299 c 0.66529,-0.192616 2.36296,-0.312984 4.2387,-0.300533 1.87492,0.01244 4.07844,-0.143715 5.49814,-0.389654 3.29615,-0.571026 9.08368,-0.765557 11.84611,-0.398175 4.613,0.613489 8.2542,2.353959 11.24879,5.376832 2.94839,2.976243 4.02233,5.722006 4.26203,10.896729 l 0.14654,3.163855 -1.48581,-1.444914 c -1.17548,-1.143117 -1.84697,-1.569542 -3.21494,-2.041597 -1.57932,-0.544982 -2.10722,-0.594864 -6.09347,-0.575767 -3.97986,0.01904 -4.5621,0.08003 -6.60888,0.691592 -2.88047,0.860691 -5.33356,2.061071 -7.36411,3.603476 -1.8019,1.368734 -5.23743,4.878643 -6.29349,6.429753 l -0.68924,1.01233 1.25561,2.1015 c 1.5269,2.55558 4.94179,9.4505 6.08472,12.28553 0.94962,2.35556 1.97852,5.82522 2.37381,8.00503 0.559,3.0826 0.23218,9.01497 -0.58226,10.5694 -0.30365,0.57952 -0.30509,0.5789 -1.01062,-0.4392 -1.12461,-1.6228 -2.27622,-2.51522 -6.1257,-4.747 -3.16563,-1.83531 -5.3506,-2.94466 -11.59033,-5.88465 -0.82299,-0.38778 -1.58052,-0.74784 -1.68339,-0.80013 -0.3061,-0.15561 -0.21346,1.58001 0.19405,3.63551 0.53684,2.7079 2.22137,6.03802 4.08079,8.06724 1.47597,1.61076 4.41061,3.76033 5.22348,3.8261 0.22825,0.0185 0.95435,0.2411 1.61358,0.49474 l 1.19858,0.46116 1.24881,-1.22382 c 0.68684,-0.67311 1.64865,-1.74526 2.13736,-2.38256 l 0.88856,-1.15872 1.34015,1.50193 c 0.73708,0.82606 1.34014,1.58494 1.34014,1.68639 0,0.31525 -3.27114,3.83892 -5.29283,5.70144 -3.76452,3.46811 -8.02061,6.26795 -13.69079,9.00636 -9.78791,4.72708 -20.4851,6.10958 -29.663529,3.83367 -1.620441,-0.4018 -1.656608,-0.39934 -3.616172,0.24595 -1.088655,0.35849 -3.030772,0.92098 -4.315814,1.24996 -1.285042,0.32898 -2.227521,0.66547 -2.0944,0.74773 0.133121,0.0823 1.127536,0.49057 2.20982,0.90732 9.784945,3.76785 21.899365,3.90553 32.646815,0.37103 5.79208,-1.90483 14.61224,-6.76555 19.70053,-10.85682 4.81279,-3.86973 10.87347,-10.67521 12.98785,-14.58392 l 0.69705,-1.2886 -1.65787,-2.4824 c -0.91183,-1.36532 -1.88636,-2.68919 -2.16564,-2.94194 -0.30127,-0.27264 -0.50851,-0.77346 -0.50955,-1.23141 -0.002,-0.8773 -0.62392,-4.9426 -0.90021,-5.8844 -0.12498,-0.42606 0.25188,-0.11021 1.1903,0.99757 3.48028,4.10843 7.97561,10.62737 9.21819,13.36785 1.69403,3.7361 2.88606,8.56723 2.67148,10.82712 -0.0756,0.79573 -0.21902,0.93622 -1.70355,1.66823 -3.30184,1.6281 -8.11518,2.84154 -13.33733,3.36231 -2.91644,0.29085 -3.01145,0.3196 -3.99026,1.20792 -0.55148,0.5005 -1.8798,1.60134 -2.95181,2.44631 l -1.94913,1.53632 h 3.60964 c 8.20366,0 15.60804,-1.72778 22.23507,-5.18846 l 2.74332,-1.43258 -0.0267,-2.98662 c -0.0306,-3.43025 -0.53439,-6.60458 -1.64158,-10.34368 -1.33496,-4.50826 -3.4694,-8.58393 -6.98924,-13.34583 -2.06576,-2.79472 -8.37145,-9.3993 -11.55187,-12.09943 -1.8725,-1.58973 -2.22715,-2.03837 -3.5055,-4.43451 -0.78223,-1.46622 -1.60217,-2.94207 -1.82207,-3.27968 -0.33629,-0.51627 -0.34038,-0.57897 -0.0257,-0.39453 1.52695,0.89518 5.81034,3.9554 7.98053,5.70161 2.00537,1.61359 2.66591,2.02515 2.8206,1.75738 0.5963,-1.0322 0.44454,-10.75922 -0.23509,-15.068584 l -0.13986,-0.88682 1.29011,-0.29779 c 2.26433,-0.522672 2.42128,-0.467634 2.72662,0.956137 0.85759,3.998797 0.94913,13.009767 0.17473,17.201057 l -0.34558,1.87043 0.78215,0.61653 c 0.43019,0.33909 1.40959,1.20889 2.17646,1.93287 l 1.39429,1.31635 0.28939,-1.30939 c 1.19517,-5.4079 1.58613,-13.22969 0.938,-18.76682 -0.22477,-1.92031 -0.47915,-3.7565 -0.56529,-4.080418 -0.14765,-0.555229 -0.10816,-0.579189 0.69026,-0.418677 0.46578,0.0936 1.46413,0.470887 2.21853,0.838324 1.29011,0.628354 1.3826,0.734791 1.55577,1.790333 0.3828,2.333288 0.51079,10.582168 0.21093,13.592868 -0.45319,4.54997 -1.53166,10.14976 -2.37833,12.34901 -0.0864,0.2246 0.42801,1.24148 1.26176,2.49392 1.97093,2.96068 3.41239,6.01865 4.69336,9.95673 1.4002,4.30467 2.13236,8.58091 2.30812,13.48095 l 0.13866,3.86557 -1.26847,0.95591 c -3.75044,2.8263 -11.9114,5.90124 -19.06455,7.18326 -3.62201,0.64916 -12.54529,0.91595 -16.21155,0.4847 l -2.54435,-0.29929 -2.86801,1.35912 c -5.2482,2.48706 -11.15205,4.28161 -16.50847,5.01795 -3.35125,0.4607 -9.18477,0.64715 -12.17157,0.38902 z m 8.58305,-13.17309 0.9766,-0.17349 -1.76623,-1.42704 -1.76622,-1.42705 -2.82656,1.42787 -2.82656,1.42787 0.99758,0.15165 c 1.40851,0.21413 6.04662,0.22712 7.21139,0.0202 z m -36.203188,-6.19261 c 1.379489,-0.22802 1.205771,-0.82131 -0.499371,-1.70541 -2.905879,-1.50668 -10.17271,-9.22641 -14.383763,-15.2802 -0.787156,-1.13162 -1.520642,-2.05749 -1.629969,-2.05749 -0.274411,0 -2.752404,3.23945 -2.752404,3.59819 0,0.33999 1.888635,3.44786 3.19016,5.24962 2.527061,3.49831 7.502169,8.73375 9.404123,9.89621 0.594722,0.36349 1.259658,0.45691 3.242089,0.45547 1.371656,-9.4e-4 2.914768,-0.0713 3.429135,-0.15639 z m 79.572398,-1.46323 c 0.9349,-0.21469 2.60171,-0.67526 3.70401,-1.02348 l 2.00418,-0.63312 -0.17356,-1.16571 c -0.0955,-0.64114 -0.47166,-2.08516 -0.83601,-3.20893 l -0.66245,-2.04323 -1.8005,2.54201 c -0.99028,1.3981 -2.47727,3.28964 -3.30444,4.20341 -1.59153,1.75817 -1.77159,2.07087 -1.0675,1.8539 0.24005,-0.074 1.20136,-0.31015 2.13627,-0.52485 z m -94.637371,-0.88905 c -1.95947,-2.28904 -3.913943,-4.94088 -5.235602,-7.10371 -0.879367,-1.43903 -1.361491,-2.02114 -1.487495,-1.79598 -0.333714,0.59631 -1.218313,5.44858 -1.218313,6.68278 v 1.20231 l 1.434002,0.42671 c 2.449469,0.72885 6.648669,1.80684 7.130887,1.83058 0.356877,0.0175 0.217465,-0.2603 -0.623479,-1.24269 z m 16.000194,-0.23103 c 0,-0.13748 0.646443,-0.24939 1.44054,-0.24939 1.411056,0 5.571843,-0.44507 5.740867,-0.61409 0.04703,-0.047 -0.439488,-0.79793 -1.081265,-1.66855 -2.272444,-3.08271 -3.965927,-7.21459 -4.613481,-11.2563 l -0.311184,-1.94223 -0.480765,1.06936 c -0.977468,2.17416 -1.517238,5.14324 -1.543055,8.48776 -0.01348,1.74831 -0.04458,3.17919 -0.06919,3.17974 -0.176065,0.004 -2.471047,-3.98663 -3.19971,-5.56372 -1.328213,-2.87475 -1.8764,-5.29861 -2.042851,-9.03265 -0.155262,-3.48317 0.102223,-5.69772 0.939463,-8.0798 0.265186,-0.75451 0.48216,-1.41198 0.48216,-1.46103 0,-0.049 -0.86975,0.59813 -1.932785,1.4382 -1.063036,0.84006 -3.195328,2.48204 -4.738442,3.64883 -1.543112,1.1668 -2.805657,2.1825 -2.805657,2.25711 0,0.0746 0.476962,0.90598 1.059914,1.8475 l 1.059916,1.71184 1.246958,-1.22781 1.246962,-1.22781 0.06796,1.54803 c 0.08794,2.00277 0.706287,5.69549 1.219787,7.28404 1.316053,4.0713 4.377327,8.1936 7.191578,9.68413 0.884463,0.46844 1.122267,0.50379 1.122267,0.16684 z m 58.143447,-0.92412 c 0.66648,-0.50826 1.2083,-0.98523 1.20404,-1.05992 -0.005,-0.0746 -1.19397,-0.92137 -2.64379,-1.88153 -4.91652,-3.256 -8.82093,-8.028 -9.92417,-12.12942 l -0.35984,-1.33774 -0.0164,1.79582 c -0.0214,2.34265 0.34763,4.02223 1.37754,6.26958 1.12544,2.45579 2.66915,4.56543 4.83754,6.61098 1.97343,1.86164 3.11977,2.65399 3.84171,2.65541 0.25938,5.2e-4 1.0169,-0.41491 1.68339,-0.92318 z m -13.11333,-2.12113 c -1.47048,-1.96981 -3.48881,-6.01446 -4.14284,-8.30207 -0.27451,-0.96016 -0.56928,-2.62089 -0.65505,-3.69052 -0.0858,-1.06962 -0.23214,-1.85521 -0.32528,-1.74575 -0.50199,0.59 -1.12573,3.62351 -1.11779,5.43627 0.0102,2.3131 0.67297,4.04747 2.40471,6.29212 0.94663,1.22701 4.5941,3.99148 4.88395,3.70163 0.0678,-0.0678 -0.40372,-0.82901 -1.0477,-1.69168 z m -25.90658,-0.10661 c 1.553489,-0.86876 1.616067,-0.94034 1.471881,-1.6834 -0.343968,-1.77262 -0.450536,-9.07118 -0.164274,-11.2505 0.638958,-4.86451 2.053144,-10.29011 3.533813,-13.55765 0.90187,-1.99026 0.56819,-1.73075 -2.19017,1.70333 -4.053437,5.04642 -6.065286,10.83709 -6.061666,17.44723 0.0019,3.67542 0.84676,8.24832 1.523695,8.24832 0.145346,0 0.994368,-0.4083 1.886721,-0.90733 z m 48.86602,-14.36791 c -0.89423,-0.99445 -4.79391,-4.89431 -8.66597,-8.66636 -7.54411,-7.34927 -9.52803,-9.49128 -12.86651,-13.89191 l -2.13117,-2.80919 0.80748,-1.33232 c 2.15865,-3.561763 5.29694,-6.14281 10.91627,-8.977958 8.98819,-4.534841 14.64081,-6.029702 22.75812,-6.018495 4.85699,0.0066 7.27784,0.396639 10.17653,1.639161 0.61418,0.263273 1.16517,0.430204 1.2244,0.370972 0.30341,-0.303408 -1.43163,-3.18707 -2.6555,-4.413474 -1.5251,-1.528267 -4.5303,-3.164553 -7.12438,-3.879125 -2.34961,-0.647224 -8.82946,-0.749645 -12.37125,-0.195539 -1.56291,0.244516 -4.24447,0.45211 -5.95904,0.461329 -2.46068,0.0132 -3.27501,0.106587 -3.86557,0.443202 l -0.74817,0.426444 1.40773,0.01 c 1.47548,0.01046 4.17357,0.731312 5.76228,1.539502 0.51437,0.26167 0.93521,0.510861 0.93521,0.553767 0,0.04289 -1.43088,0.07079 -3.17974,0.06202 -2.39689,-0.01207 -3.54814,0.09571 -4.67609,0.43783 -1.79403,0.544143 -4.16417,1.766315 -4.78687,2.46836 -0.44211,0.498448 -0.43973,0.502161 0.13037,0.202797 1.80094,-0.945684 5.64645,-1.388726 7.77389,-0.895623 0.85484,0.198131 0.83165,0.213514 -1.12226,0.744169 -3.97467,1.079465 -8.01815,3.15112 -11.79325,6.042201 -3.41469,2.615065 -5.70007,6.07095 -6.27712,9.49205 -0.27238,1.61492 -0.25467,1.87284 0.19904,2.89854 0.62342,1.40934 2.93515,4.55841 4.76109,6.48564 0.76386,0.80622 3.03795,3.02269 5.05354,4.92548 2.0156,1.90279 3.62687,3.45962 3.5806,3.45962 -0.0463,0 -1.47093,-0.7227 -3.16593,-1.606 -4.45729,-2.32278 -6.8837,-3.23899 -10.56357,-3.98877 -0.41149,-0.0838 0.65466,0.59291 2.36923,1.50389 1.71457,0.91098 4.8569,2.63687 6.98297,3.8353 2.12606,1.19843 5.88564,3.25694 8.35462,4.57447 2.46897,1.31752 5.77965,3.17804 7.35705,4.13446 1.57741,0.95643 2.90397,1.74633 2.94792,1.75533 0.0439,0.009 -0.65172,-0.79726 -1.54595,-1.79171 z m -57.781949,-3.71156 c 2.277883,-9.08231 10.191064,-17.88675 19.347479,-21.52659 0.95896,-0.38121 1.79969,-0.75186 1.86827,-0.82368 0.0686,-0.0718 -1.05367,-0.064 -2.49391,0.0174 -6.055816,0.34234 -11.112905,2.72809 -15.41376,7.27164 -1.106762,1.16922 -2.067377,2.12586 -2.134686,2.12586 -0.17041,0 0.945995,-4.10845 1.544214,-5.68282 1.064733,-2.80216 3.265334,-5.63254 5.48457,-7.05419 l 1.07707,-0.689975 -1.421283,-0.177573 c -0.781712,-0.09767 -2.195699,-0.105607 -3.142194,-0.01763 -1.915564,0.178026 -3.201964,-0.245043 -3.201964,-1.053063 0,-0.898725 0.752078,-2.942725 1.602212,-4.354507 0.805682,-1.33794 0.829973,-1.434724 0.320592,-1.277303 -2.964744,0.916256 -7.153686,4.405858 -9.281218,7.731721 -1.830355,2.86131 -3.644544,7.16694 -4.247825,10.08142 l -0.180684,0.87288 0.992577,-1.24696 c 1.319126,-1.65719 3.094481,-3.28334 4.982305,-4.56356 0.849757,-0.57627 1.605643,-1.04776 1.679749,-1.04776 0.07409,0 -0.08257,0.55134 -0.348181,1.22518 -1.263466,3.20545 -1.845492,10.73194 -1.168463,15.10998 0.470367,3.04169 1.376595,6.22386 2.464279,8.65319 l 0.815428,1.82126 0.189007,-1.74573 c 0.103957,-0.96017 0.40384,-2.60232 0.666416,-3.64922 z m 58.250059,-2.12264 c -1.80183,-5.39824 -5.60962,-10.49012 -10.17001,-13.59957 l -1.44165,-0.98298 1.12828,1.76023 c 0.62056,0.96813 1.07737,1.76023 1.01516,1.76023 -0.0622,0 -1.64169,-0.9005 -3.50995,-2.00111 -6.25519,-3.68502 -6.29449,-3.68388 -2.41165,0.0697 4.02776,3.8937 6.37579,6.11566 11.27296,10.66766 1.98766,1.84756 3.82413,3.61762 4.08105,3.93347 0.25691,0.31585 0.51721,0.52417 0.57845,0.46294 0.0613,-0.0613 -0.18296,-0.99302 -0.54264,-2.07062 z m -31.30302,-25.071241 1.36694,-0.611246 -1.61633,0.100395 c -3.0187,0.187508 -7.17505,-1.249667 -9.94403,-3.438429 -0.70063,-0.553806 -1.27388,-0.929981 -1.27388,-0.835921 0,0.09407 0.3495,0.715647 0.77667,1.381327 1.03587,1.614268 2.73069,3.06905 4.30009,3.69107 1.74763,0.692655 4.47319,0.570168 6.39054,-0.287196 z M 79.018354,91.338616 c 4.242971,-2.839512 8.580181,-4.602538 13.375355,-5.436922 l 2.618618,-0.455654 -1.6725,-0.796096 c -3.140489,-1.494852 -6.505858,-1.314309 -10.24697,0.549705 -1.691361,0.842716 -2.500851,1.477555 -4.665078,3.65855 -1.805103,1.819091 -2.98663,3.269245 -3.803228,4.667869 -0.651532,1.115933 -1.18461,2.107851 -1.18461,2.204267 0,0.09643 0.757526,-0.51925 1.683397,-1.368159 0.925871,-0.848909 2.678622,-2.209518 3.895016,-3.02356 z M 115.0186,94.27577 c 1.42943,-0.724347 3.5281,-2.924675 3.72405,-3.904433 0.0787,-0.393443 0.45405,-0.855997 0.92027,-1.134012 l 0.78736,-0.469538 -1.87043,-0.256383 -1.87044,-0.256382 -0.17956,0.96757 c -0.36276,1.954729 -1.75818,3.145522 -3.68601,3.145522 -1.34546,0 -2.54121,-0.662023 -3.25826,-1.803943 -0.75814,-1.207364 -0.56687,-3.180577 0.40685,-4.196907 0.87895,-0.917435 0.82171,-0.969239 -2.08711,-1.888899 -2.46814,-0.780326 -4.30148,-0.721745 -6.10549,0.195077 l -1.15872,0.588879 h 1.79936 c 0.98964,0 1.99208,0.07927 2.22764,0.176084 0.39053,0.160569 0.39603,0.253291 0.0623,1.051913 -1.68841,4.040928 2.72394,8.874606 7.7674,8.509092 0.70293,-0.05099 1.83401,-0.375648 2.52075,-0.72364 z m 12.23594,-10.931577 c -0.5188,-2.854452 -2.39049,-5.292857 -5.80829,-7.566989 -3.41088,-2.269523 -7.54203,-3.690401 -12.71738,-4.374056 -2.52963,-0.334155 -7.57919,-0.185152 -10.100362,0.298054 l -1.621044,0.310685 0.997563,0.178638 c 0.548659,0.09825 2.119833,0.311844 3.491493,0.474675 2.59253,0.307744 5.19748,0.824129 6.48417,1.285363 1.06221,0.380756 6.12013,2.780855 6.03652,2.864453 -0.0383,0.03827 -0.96321,-0.08964 -2.05546,-0.284264 -2.6172,-0.466306 -6.37438,-0.463016 -8.64084,0.0075 -1.85391,0.384913 -5.304864,1.909937 -6.43815,2.845102 l -0.623471,0.51449 1.476169,-0.498617 c 0.811903,-0.274235 2.459132,-0.629485 3.660522,-0.789441 3.50962,-0.467267 5.49683,0.03356 11.28941,2.844979 3.85103,1.869123 4.96115,2.302004 6.11812,2.385686 1.50316,0.108737 3.26782,-0.418789 3.26782,-0.976874 0,-0.167365 -0.33764,-0.902561 -0.75031,-1.633769 -0.41267,-0.731209 -0.66518,-1.329457 -0.56113,-1.329438 0.40743,7.5e-5 3.99733,2.47133 5.17701,3.563812 0.68583,0.63514 1.31581,1.159245 1.39996,1.164693 0.0842,0.0057 0.0471,-0.572685 -0.0823,-1.284741 z M 109.60175,46.529404 c 0,-0.111043 -0.5456,-0.811041 -1.21243,-1.555552 -1.37988,-1.540631 -1.29761,-1.555356 -3.05814,0.547401 l -1.01311,1.210047 h 2.64184 c 1.45301,0 2.64184,-0.09085 2.64184,-0.201896 z"
       id="path1"
       sodipodi:nodetypes="cscssscssscsssscsssscsssssscsssscssssscccsssssscsssscscscsssssscssssssssssscssscsccscsssscccsssscsssssccscsssscssssscsssscsssscscssssssscssscscsssscsscsssssscsssssscsssssssssssscsscsssssssscssscsscssscsssscsscsssssscssscssscsscssscssssssscssscssccccccccssccssssssccsscsscsssssssscscsssssscsscsssssssscccsssssscsscsssssssssccsssssssscssssscsscssssscscssscsssssssssssscsssscsscsccsssscscsscsscssscsscscsscssssssssscsssssssscsssssssssscccsssssscscccsscssscsssscsscsscssssscccssscss" /><path
       d="m 60.449784,214.77645 c -4.931601,-3.30861 -5.9282,-4.07979 -6.359489,-4.92102 -0.493712,-0.96299 -0.515758,-1.49888 -0.636132,-15.46229 l -0.124697,-14.46472 -0.685413,-1.60067 c -0.376977,-0.88038 -0.645711,-1.64038 -0.597186,-1.68891 0.04852,-0.0485 2.228068,-0.0577 4.843428,-0.0204 l 4.755199,0.0679 -0.728877,1.70807 -0.728879,1.70808 v 13.67493 13.67494 l 2.182178,1.83875 c 3.233215,2.72439 3.988686,3.25088 4.353579,3.03407 0.404123,-0.24011 4.284652,-3.51206 5.372694,-4.5301 l 0.810527,-0.75837 V 193.77796 180.51922 L 72.033846,178.63 c -0.480085,-1.03906 -0.872869,-1.92952 -0.872869,-1.97878 0,-0.0493 2.188404,-0.0896 4.863134,-0.0896 2.67473,0 4.863143,0.0335 4.863143,0.0744 0,0.0409 -0.334466,1.02287 -0.743255,2.18218 l -0.743255,2.10785 -0.01037,13.84123 c -0.01169,15.57986 0.04345,15.09657 -1.898805,16.63192 -1.131901,0.89475 -10.838619,7.31181 -11.050191,7.30521 -0.07889,-0.003 -2.775139,-1.77002 -5.991567,-3.92791 z m -47.68233,0.75264 0.659339,-1.93279 0.07074,-16.63763 0.07074,-16.63764 -0.729889,-1.87969 -0.729888,-1.8797 4.150631,0.0164 4.150633,0.0164 4.477059,6.73359 c 2.462382,3.70347 4.552929,6.78047 4.645661,6.83778 0.09273,0.0573 0.478941,-0.37091 0.858245,-0.95162 0.379304,-0.58071 2.497241,-3.66131 4.706528,-6.84581 l 4.016885,-5.78998 3.901432,-0.008 3.901431,-0.008 -0.596991,1.87993 -0.596992,1.87995 0.0028,16.13861 0.0028,16.13861 0.742609,2.36922 c 0.408435,1.30308 0.743861,2.39728 0.745392,2.43157 0.0015,0.0343 -2.197636,0.0623 -4.887037,0.0623 -4.55853,0 -4.87776,-0.0296 -4.711797,-0.43644 0.09791,-0.24003 0.502711,-1.38335 0.899553,-2.54069 l 0.72153,-2.10427 -0.0075,-12.60985 c -0.0055,-9.13573 -0.08163,-12.48243 -0.276353,-12.14737 -0.147823,0.25435 -1.453555,2.10609 -2.901627,4.11496 -1.448071,2.00887 -3.408124,4.7467 -4.355671,6.08407 -0.947547,1.33735 -1.821424,2.43156 -1.941947,2.43156 -0.120523,0 -0.580448,-0.53307 -1.022055,-1.18461 -0.441606,-0.65153 -2.551241,-3.59747 -4.688075,-6.54653 l -3.885153,-5.36192 -0.06464,12.67636 -0.06464,12.67638 0.848348,2.47417 0.848349,2.47418 h -4.809967 -4.809833 z m 73.880471,-0.47704 0.723508,-2.40983 v -16.00147 -16.00148 l -0.623481,-1.83311 c -0.342912,-1.00821 -0.623472,-1.92568 -0.623472,-2.03881 0,-0.11314 1.809646,-0.20571 4.021436,-0.20571 h 4.021445 l -0.168345,0.81051 c -0.09256,0.4458 -0.229878,1.10422 -0.305105,1.46318 -0.11837,0.56489 0.559998,1.48708 5.044967,6.85827 5.884522,7.04728 8.570282,10.15841 8.873602,10.27902 0.11499,0.0457 0.20908,-3.45707 0.20908,-7.78399 0,-7.6087 -0.0196,-7.92887 -0.597,-9.74706 l -0.59699,-1.87993 h 4.69119 4.69119 l -0.84755,2.05748 -0.84753,2.05748 -0.005,15.98948 -0.005,15.98948 0.87166,2.34081 c 0.47941,1.28744 0.8722,2.36887 0.87287,2.40316 6.7e-4,0.0343 -2.17054,0.0623 -4.82491,0.0623 h -4.82613 l 0.70801,-2.43158 c 0.6503,-2.23336 0.70827,-2.76777 0.71116,-6.55614 l 0.003,-4.12458 -2.55627,-2.75337 c -1.40595,-1.51436 -4.52023,-4.90807 -6.920621,-7.5416 l -4.364356,-4.78822 -0.06485,11.50785 -0.06485,11.50785 0.750683,2.34349 c 0.412879,1.28891 0.750682,2.45436 0.750682,2.58989 0,0.15359 -1.775553,0.24641 -4.713772,0.24641 h -4.713782 z m 34.391385,2.20722 c 0,-0.11144 0.33669,-1.19864 0.74818,-2.41601 l 0.74817,-2.2134 V 196.4923 180.35474 l -0.74817,-1.75819 c -0.41149,-0.967 -0.74818,-1.82045 -0.74818,-1.89655 0,-0.0761 2.13231,-0.13836 4.73845,-0.13836 2.60614,0 4.73844,0.0445 4.73844,0.0988 0,0.0544 -0.33629,0.92412 -0.74731,1.93279 l -0.74733,1.83393 -8.5e-4,16.13794 -8.6e-4,16.13793 0.85043,2.3794 0.85043,2.37939 h -4.8407 c -2.66238,0 -4.8407,-0.0911 -4.8407,-0.2026 z m 14.96351,0.003 c 0,-0.10992 0.27821,-1.14802 0.61825,-2.30687 l 0.61825,-2.10703 0.006,-16.37683 c 0.005,-16.08345 -0.004,-16.39841 -0.51752,-17.58211 -0.28752,-0.66291 -0.62142,-1.4578 -0.742,-1.76642 l -0.21925,-0.56113 h 4.38486 c 3.77925,0 4.3652,0.0513 4.24248,0.37105 -0.0783,0.20408 -0.21416,0.91208 -0.30187,1.57334 l -0.1595,1.20229 2.30653,2.8244 c 3.3839,4.14366 11.2561,13.34342 11.50047,13.43991 0.1158,0.0457 0.21053,-3.37718 0.21051,-7.60645 -4e-5,-7.48813 -0.0163,-7.74184 -0.61974,-9.68471 -0.34084,-1.09732 -0.62139,-2.02319 -0.62344,-2.05748 -0.002,-0.0343 2.02833,-0.0623 4.51198,-0.0623 4.20398,0 4.50314,0.0302 4.33321,0.43644 -1.13419,2.71179 -1.11779,2.42578 -1.11779,19.49544 v 16.14656 l 0.83967,2.4109 0.83968,2.4109 h -4.79971 -4.7997 l 0.63485,-2.05748 c 0.55815,-1.80893 0.64676,-2.60794 0.73342,-6.61406 l 0.0985,-4.55658 -1.66228,-1.8029 c -0.91426,-0.99161 -4.0355,-4.42322 -6.9361,-7.62583 l -5.27381,-5.8229 -0.0648,11.85175 -0.0648,11.85173 0.75058,2.31568 c 0.41282,1.27362 0.75059,2.34828 0.75059,2.38813 0,0.0399 -2.1323,0.0725 -4.73845,0.0725 -2.60614,0 -4.73844,-0.0899 -4.73844,-0.19985 z m 35.08702,-0.98476 c 1.09577,-3.48226 1.06873,-2.98523 1.07181,-19.69625 l 0.003,-16.01773 -0.59809,-1.56439 c -0.32894,-0.86041 -0.67763,-1.76078 -0.77485,-2.00082 -0.16422,-0.40546 0.12375,-0.43644 4.05683,-0.43644 h 4.2336 l -0.32871,1.41407 -0.32871,1.41407 0.79134,1.0175 c 0.72341,0.93015 6.2935,7.71292 10.87096,13.23769 1.02281,1.23449 2.00998,2.28081 2.19371,2.32516 0.27373,0.0661 0.33309,-1.30716 0.32873,-7.60644 l -0.006,-7.68709 -0.69625,-2.05748 -0.69624,-2.05748 h 4.58393 4.58393 l -0.16277,0.56113 c -0.0896,0.30862 -0.37766,1.15453 -0.64029,1.8798 -0.4522,1.24877 -0.47751,2.18752 -0.47751,17.71249 v 16.39384 l 0.74817,1.94298 c 0.4115,1.06865 0.74818,2.04807 0.74818,2.17649 0,0.13689 -1.96063,0.23351 -4.73844,0.23351 -2.60615,0 -4.73844,-0.0423 -4.73844,-0.0942 0,-0.0517 0.33603,-1.14598 0.74673,-2.43157 0.70655,-2.21166 0.74681,-2.56276 0.74818,-6.52463 l 0.002,-4.18718 -1.5587,-1.67766 c -0.85729,-0.92272 -3.52266,-3.86078 -5.92305,-6.52904 -2.4004,-2.66827 -4.7824,-5.30372 -5.29334,-5.85657 l -0.92899,-1.00519 -0.007,11.86168 -0.007,11.86167 0.74817,2.21339 c 0.4115,1.21737 0.74818,2.24846 0.74818,2.29131 0,0.0429 -2.17743,0.0779 -4.83873,0.0779 h -4.83873 z"
       style="fill:#ffffff;stroke-width:1.243;fill-opacity:1;stroke:#717171;stroke-opacity:1;stroke-dasharray:none;filter:url(#filter4);opacity:0.60064412"
       id="path1-0-7" /><path
       d="m 60.449784,214.77645 c -4.931601,-3.30861 -5.9282,-4.07979 -6.359489,-4.92102 -0.493712,-0.96299 -0.515758,-1.49888 -0.636132,-15.46229 l -0.124697,-14.46472 -0.685413,-1.60067 c -0.376977,-0.88038 -0.645711,-1.64038 -0.597186,-1.68891 0.04852,-0.0485 2.228068,-0.0577 4.843428,-0.0204 l 4.755199,0.0679 -0.728877,1.70807 -0.728879,1.70808 v 13.67493 13.67494 l 2.182178,1.83875 c 3.233215,2.72439 3.988686,3.25088 4.353579,3.03407 0.404123,-0.24011 4.284652,-3.51206 5.372694,-4.5301 l 0.810527,-0.75837 V 193.77796 180.51922 L 72.033846,178.63 c -0.480085,-1.03906 -0.872869,-1.92952 -0.872869,-1.97878 0,-0.0493 2.188404,-0.0896 4.863134,-0.0896 2.67473,0 4.863143,0.0335 4.863143,0.0744 0,0.0409 -0.334466,1.02287 -0.743255,2.18218 l -0.743255,2.10785 -0.01037,13.84123 c -0.01169,15.57986 0.04345,15.09657 -1.898805,16.63192 -1.131901,0.89475 -10.838619,7.31181 -11.050191,7.30521 -0.07889,-0.003 -2.775139,-1.77002 -5.991567,-3.92791 z m -47.68233,0.75264 0.659339,-1.93279 0.07074,-16.63763 0.07074,-16.63764 -0.729889,-1.87969 -0.729888,-1.8797 4.150631,0.0164 4.150633,0.0164 4.477059,6.73359 c 2.462382,3.70347 4.552929,6.78047 4.645661,6.83778 0.09273,0.0573 0.478941,-0.37091 0.858245,-0.95162 0.379304,-0.58071 2.497241,-3.66131 4.706528,-6.84581 l 4.016885,-5.78998 3.901432,-0.008 3.901431,-0.008 -0.596991,1.87993 -0.596992,1.87995 0.0028,16.13861 0.0028,16.13861 0.742609,2.36922 c 0.408435,1.30308 0.743861,2.39728 0.745392,2.43157 0.0015,0.0343 -2.197636,0.0623 -4.887037,0.0623 -4.55853,0 -4.87776,-0.0296 -4.711797,-0.43644 0.09791,-0.24003 0.502711,-1.38335 0.899553,-2.54069 l 0.72153,-2.10427 -0.0075,-12.60985 c -0.0055,-9.13573 -0.08163,-12.48243 -0.276353,-12.14737 -0.147823,0.25435 -1.453555,2.10609 -2.901627,4.11496 -1.448071,2.00887 -3.408124,4.7467 -4.355671,6.08407 -0.947547,1.33735 -1.821424,2.43156 -1.941947,2.43156 -0.120523,0 -0.580448,-0.53307 -1.022055,-1.18461 -0.441606,-0.65153 -2.551241,-3.59747 -4.688075,-6.54653 l -3.885153,-5.36192 -0.06464,12.67636 -0.06464,12.67638 0.848348,2.47417 0.848349,2.47418 h -4.809967 -4.809833 z m 73.880471,-0.47704 0.723508,-2.40983 v -16.00147 -16.00148 l -0.623481,-1.83311 c -0.342912,-1.00821 -0.623472,-1.92568 -0.623472,-2.03881 0,-0.11314 1.809646,-0.20571 4.021436,-0.20571 h 4.021445 l -0.168345,0.81051 c -0.09256,0.4458 -0.229878,1.10422 -0.305105,1.46318 -0.11837,0.56489 0.559998,1.48708 5.044967,6.85827 5.884522,7.04728 8.570282,10.15841 8.873602,10.27902 0.11499,0.0457 0.20908,-3.45707 0.20908,-7.78399 0,-7.6087 -0.0196,-7.92887 -0.597,-9.74706 l -0.59699,-1.87993 h 4.69119 4.69119 l -0.84755,2.05748 -0.84753,2.05748 -0.005,15.98948 -0.005,15.98948 0.87166,2.34081 c 0.47941,1.28744 0.8722,2.36887 0.87287,2.40316 6.7e-4,0.0343 -2.17054,0.0623 -4.82491,0.0623 h -4.82613 l 0.70801,-2.43158 c 0.6503,-2.23336 0.70827,-2.76777 0.71116,-6.55614 l 0.003,-4.12458 -2.55627,-2.75337 c -1.40595,-1.51436 -4.52023,-4.90807 -6.920621,-7.5416 l -4.364356,-4.78822 -0.06485,11.50785 -0.06485,11.50785 0.750683,2.34349 c 0.412879,1.28891 0.750682,2.45436 0.750682,2.58989 0,0.15359 -1.775553,0.24641 -4.713772,0.24641 h -4.713782 z m 34.391385,2.20722 c 0,-0.11144 0.33669,-1.19864 0.74818,-2.41601 l 0.74817,-2.2134 V 196.4923 180.35474 l -0.74817,-1.75819 c -0.41149,-0.967 -0.74818,-1.82045 -0.74818,-1.89655 0,-0.0761 2.13231,-0.13836 4.73845,-0.13836 2.60614,0 4.73844,0.0445 4.73844,0.0988 0,0.0544 -0.33629,0.92412 -0.74731,1.93279 l -0.74733,1.83393 -8.5e-4,16.13794 -8.6e-4,16.13793 0.85043,2.3794 0.85043,2.37939 h -4.8407 c -2.66238,0 -4.8407,-0.0911 -4.8407,-0.2026 z m 14.96351,0.003 c 0,-0.10992 0.27821,-1.14802 0.61825,-2.30687 l 0.61825,-2.10703 0.006,-16.37683 c 0.005,-16.08345 -0.004,-16.39841 -0.51752,-17.58211 -0.28752,-0.66291 -0.62142,-1.4578 -0.742,-1.76642 l -0.21925,-0.56113 h 4.38486 c 3.77925,0 4.3652,0.0513 4.24248,0.37105 -0.0783,0.20408 -0.21416,0.91208 -0.30187,1.57334 l -0.1595,1.20229 2.30653,2.8244 c 3.3839,4.14366 11.2561,13.34342 11.50047,13.43991 0.1158,0.0457 0.21053,-3.37718 0.21051,-7.60645 -4e-5,-7.48813 -0.0163,-7.74184 -0.61974,-9.68471 -0.34084,-1.09732 -0.62139,-2.02319 -0.62344,-2.05748 -0.002,-0.0343 2.02833,-0.0623 4.51198,-0.0623 4.20398,0 4.50314,0.0302 4.33321,0.43644 -1.13419,2.71179 -1.11779,2.42578 -1.11779,19.49544 v 16.14656 l 0.83967,2.4109 0.83968,2.4109 h -4.79971 -4.7997 l 0.63485,-2.05748 c 0.55815,-1.80893 0.64676,-2.60794 0.73342,-6.61406 l 0.0985,-4.55658 -1.66228,-1.8029 c -0.91426,-0.99161 -4.0355,-4.42322 -6.9361,-7.62583 l -5.27381,-5.8229 -0.0648,11.85175 -0.0648,11.85173 0.75058,2.31568 c 0.41282,1.27362 0.75059,2.34828 0.75059,2.38813 0,0.0399 -2.1323,0.0725 -4.73845,0.0725 -2.60614,0 -4.73844,-0.0899 -4.73844,-0.19985 z m 35.08702,-0.98476 c 1.09577,-3.48226 1.06873,-2.98523 1.07181,-19.69625 l 0.003,-16.01773 -0.59809,-1.56439 c -0.32894,-0.86041 -0.67763,-1.76078 -0.77485,-2.00082 -0.16422,-0.40546 0.12375,-0.43644 4.05683,-0.43644 h 4.2336 l -0.32871,1.41407 -0.32871,1.41407 0.79134,1.0175 c 0.72341,0.93015 6.2935,7.71292 10.87096,13.23769 1.02281,1.23449 2.00998,2.28081 2.19371,2.32516 0.27373,0.0661 0.33309,-1.30716 0.32873,-7.60644 l -0.006,-7.68709 -0.69625,-2.05748 -0.69624,-2.05748 h 4.58393 4.58393 l -0.16277,0.56113 c -0.0896,0.30862 -0.37766,1.15453 -0.64029,1.8798 -0.4522,1.24877 -0.47751,2.18752 -0.47751,17.71249 v 16.39384 l 0.74817,1.94298 c 0.4115,1.06865 0.74818,2.04807 0.74818,2.17649 0,0.13689 -1.96063,0.23351 -4.73844,0.23351 -2.60615,0 -4.73844,-0.0423 -4.73844,-0.0942 0,-0.0517 0.33603,-1.14598 0.74673,-2.43157 0.70655,-2.21166 0.74681,-2.56276 0.74818,-6.52463 l 0.002,-4.18718 -1.5587,-1.67766 c -0.85729,-0.92272 -3.52266,-3.86078 -5.92305,-6.52904 -2.4004,-2.66827 -4.7824,-5.30372 -5.29334,-5.85657 l -0.92899,-1.00519 -0.007,11.86168 -0.007,11.86167 0.74817,2.21339 c 0.4115,1.21737 0.74818,2.24846 0.74818,2.29131 0,0.0429 -2.17743,0.0779 -4.83873,0.0779 h -4.83873 z"
       style="fill:#000000;stroke-width:0.942583"
       id="path1-0" /></g></svg>
